<svg xmlns="http://www.w3.org/2000/svg" xmlns:xlink="http://www.w3.org/1999/xlink" width="146" zoomAndPan="magnify" viewBox="0 0 109.5 30.000001" height="40" preserveAspectRatio="xMidYMid meet" version="1.2"><defs><clipPath id="ad6a0647f7"><path d="M 1.523438 0 L 107.492188 0 L 107.492188 29.03125 L 1.523438 29.03125 Z M 1.523438 0 "/></clipPath><clipPath id="c8e6ebe4c1"><path d="M 19.738281 4 L 41.441406 4 L 41.441406 25.992188 L 19.738281 25.992188 Z M 19.738281 4 "/></clipPath><clipPath id="069adc9d27"><path d="M 1.523438 3 L 23.605469 3 L 23.605469 25.992188 L 1.523438 25.992188 Z M 1.523438 3 "/></clipPath></defs><g id="a31eb785e9"><g clip-rule="nonzero" clip-path="url(#ad6a0647f7)"><path style=" stroke:none;fill-rule:nonzero;fill:#ffffff;fill-opacity:1;" d="M 1.523438 0 L 107.492188 0 L 107.492188 29.03125 L 1.523438 29.03125 Z M 1.523438 0 "/><path style=" stroke:none;fill-rule:nonzero;fill:#000000;fill-opacity:1;" d="M 1.523438 0 L 107.492188 0 L 107.492188 29.03125 L 1.523438 29.03125 Z M 1.523438 0 "/></g><path style=" stroke:none;fill-rule:evenodd;fill:#3bf60d;fill-opacity:1;" d="M 19.675781 23.046875 L 19.664062 23.058594 L 19.683594 23.015625 Z M 19.675781 23.046875 "/><g clip-rule="nonzero" clip-path="url(#c8e6ebe4c1)"><path style=" stroke:none;fill-rule:evenodd;fill:#ffffff;fill-opacity:1;" d="M 22.898438 6.535156 L 28.546875 6.535156 C 29.289062 5.304688 30.308594 4.445312 31.546875 4.132812 C 35.1875 3.207031 39.371094 7.328125 40.890625 13.328125 C 42.410156 19.328125 40.691406 24.941406 37.050781 25.863281 C 33.890625 26.664062 30.320312 23.664062 28.441406 18.933594 L 27.753906 18.933594 C 27.519531 20 26.257812 20.8125 24.742188 20.8125 C 24.019531 20.8125 23.355469 20.628906 22.832031 20.320312 L 19.738281 22.992188 L 26.585938 10.339844 L 21.707031 11.328125 L 22.898438 6.535156 "/></g><g clip-rule="nonzero" clip-path="url(#069adc9d27)"><path style=" stroke:none;fill-rule:evenodd;fill:#3bf60d;fill-opacity:1;" d="M 14.417969 6.535156 L 18.015625 6.535156 L 23.589844 3 L 16.898438 16.363281 L 21.777344 14.90625 C 21.191406 17.089844 20.726562 18.835938 20.386719 20.152344 C 19.832031 20.5625 19.070312 20.8125 18.222656 20.8125 C 16.707031 20.8125 15.449219 20 15.210938 18.933594 L 14.527344 18.933594 C 12.644531 23.664062 9.074219 26.664062 5.914062 25.863281 C 2.277344 24.941406 0.558594 19.328125 2.078125 13.328125 C 3.597656 7.328125 7.78125 3.207031 11.421875 4.132812 C 12.660156 4.445312 13.675781 5.304688 14.417969 6.535156 "/></g><path style=" stroke:none;fill-rule:evenodd;fill:#000000;fill-opacity:1;" d="M 8.640625 10.6875 C 9.324219 10.6875 9.878906 11.246094 9.878906 11.925781 L 9.878906 13.566406 L 11.519531 13.566406 C 12.199219 13.566406 12.757812 14.121094 12.757812 14.804688 C 12.757812 15.484375 12.199219 16.042969 11.519531 16.042969 L 9.878906 16.042969 L 9.878906 17.679688 C 9.878906 18.363281 9.324219 18.917969 8.640625 18.917969 C 7.960938 18.917969 7.40625 18.363281 7.40625 17.679688 L 7.40625 16.042969 L 5.765625 16.042969 C 5.082031 16.042969 4.527344 15.484375 4.527344 14.804688 C 4.527344 14.121094 5.082031 13.566406 5.765625 13.566406 L 7.40625 13.566406 L 7.40625 11.925781 C 7.40625 11.246094 7.960938 10.6875 8.640625 10.6875 "/><path style=" stroke:none;fill-rule:evenodd;fill:#000000;fill-opacity:1;" d="M 32.957031 16.589844 L 32.957031 17.035156 C 32.945312 16.960938 32.9375 16.886719 32.9375 16.8125 C 32.9375 16.734375 32.945312 16.660156 32.957031 16.589844 Z M 32.957031 13.84375 L 32.957031 14.292969 C 32.851562 14.953125 32.277344 15.457031 31.585938 15.457031 C 30.820312 15.457031 30.195312 14.835938 30.195312 14.070312 C 30.195312 13.300781 30.820312 12.679688 31.585938 12.679688 C 32.277344 12.679688 32.851562 13.183594 32.957031 13.84375 Z M 32.957031 11.550781 C 32.945312 11.476562 32.9375 11.402344 32.9375 11.324219 C 32.9375 11.25 32.945312 11.175781 32.957031 11.101562 Z M 32.957031 14.292969 L 32.957031 13.84375 C 32.96875 13.917969 32.976562 13.992188 32.976562 14.070312 C 32.976562 14.144531 32.96875 14.21875 32.957031 14.292969 Z M 35.699219 16.589844 L 35.699219 17.035156 C 35.59375 17.695312 35.019531 18.199219 34.328125 18.199219 C 33.636719 18.199219 33.0625 17.695312 32.957031 17.035156 L 32.957031 16.589844 C 33.0625 15.925781 33.636719 15.421875 34.328125 15.421875 C 35.019531 15.421875 35.59375 15.925781 35.699219 16.589844 Z M 35.699219 13.847656 L 35.699219 14.289062 C 35.6875 14.21875 35.683594 14.144531 35.683594 14.070312 C 35.683594 13.992188 35.6875 13.917969 35.699219 13.847656 Z M 34.328125 9.9375 C 35.019531 9.9375 35.59375 10.441406 35.699219 11.105469 L 35.699219 11.546875 C 35.59375 12.210938 35.019531 12.714844 34.328125 12.714844 C 33.636719 12.714844 33.0625 12.210938 32.957031 11.550781 L 32.957031 11.101562 C 33.0625 10.441406 33.636719 9.9375 34.328125 9.9375 Z M 35.699219 14.289062 L 35.699219 13.847656 C 35.804688 13.183594 36.378906 12.679688 37.070312 12.679688 C 37.839844 12.679688 38.460938 13.300781 38.460938 14.070312 C 38.460938 14.835938 37.839844 15.457031 37.070312 15.457031 C 36.378906 15.457031 35.804688 14.953125 35.699219 14.289062 Z M 35.699219 17.035156 L 35.699219 16.589844 C 35.710938 16.660156 35.71875 16.734375 35.71875 16.8125 C 35.71875 16.886719 35.710938 16.960938 35.699219 17.035156 Z M 35.699219 11.105469 C 35.710938 11.175781 35.71875 11.25 35.71875 11.324219 C 35.71875 11.402344 35.710938 11.476562 35.699219 11.546875 L 35.699219 11.105469 "/><g style="fill:#000000;fill-opacity:1;"><g transform="translate(44.239055, 23.497152)"><path style="stroke:none" d="M 3.554688 1.726562 C 2.675781 1.726562 1.882812 1.523438 1.171875 1.117188 C 0.457031 0.707031 -0.105469 0.140625 -0.515625 -0.582031 C -0.917969 -1.292969 -1.121094 -2.085938 -1.121094 -2.960938 L -1.121094 -7.578125 C -1.121094 -8.457031 -0.917969 -9.25 -0.511719 -9.960938 C -0.101562 -10.671875 0.460938 -11.234375 1.171875 -11.644531 C 1.882812 -12.050781 2.675781 -12.253906 3.554688 -12.253906 L 8.011719 -12.253906 C 8.320312 -12.253906 8.609375 -12.199219 8.886719 -12.089844 C 9.183594 -11.976562 9.441406 -11.804688 9.667969 -11.578125 C 9.894531 -11.351562 10.066406 -11.089844 10.183594 -10.792969 C 10.292969 -10.519531 10.347656 -10.226562 10.347656 -9.921875 L 10.347656 -8.171875 C 10.347656 -7.867188 10.289062 -7.574219 10.179688 -7.296875 C 10.066406 -7.019531 9.90625 -6.765625 9.691406 -6.546875 C 9.464844 -6.3125 9.203125 -6.132812 8.90625 -6.011719 C 8.625 -5.898438 8.328125 -5.839844 8.011719 -5.839844 L 4.605469 -5.839844 C 4.746094 -5.839844 4.886719 -5.867188 5.023438 -5.921875 C 5.171875 -5.984375 5.296875 -6.066406 5.40625 -6.175781 C 5.519531 -6.285156 5.605469 -6.417969 5.664062 -6.566406 C 5.714844 -6.699219 5.742188 -6.828125 5.742188 -6.960938 L 5.742188 -3.566406 C 5.742188 -3.707031 5.710938 -3.847656 5.65625 -3.984375 C 5.597656 -4.132812 5.511719 -4.257812 5.40625 -4.367188 C 5.296875 -4.472656 5.171875 -4.558594 5.023438 -4.617188 C 4.886719 -4.671875 4.746094 -4.699219 4.605469 -4.699219 C 4.46875 -4.699219 4.332031 -4.675781 4.195312 -4.621094 C 4.058594 -4.566406 3.9375 -4.488281 3.835938 -4.390625 C 3.722656 -4.28125 3.636719 -4.15625 3.574219 -4.007812 C 3.515625 -3.863281 3.484375 -3.714844 3.484375 -3.566406 L 3.484375 -5.699219 C 3.484375 -6.019531 3.542969 -6.324219 3.667969 -6.613281 C 3.792969 -6.910156 3.976562 -7.171875 4.21875 -7.398438 C 4.441406 -7.601562 4.6875 -7.757812 4.960938 -7.867188 C 5.238281 -7.976562 5.527344 -8.03125 5.828125 -8.03125 L 8.027344 -8.03125 C 8.332031 -8.03125 8.625 -7.976562 8.898438 -7.867188 C 9.195312 -7.75 9.457031 -7.578125 9.683594 -7.351562 C 9.910156 -7.125 10.078125 -6.867188 10.195312 -6.570312 C 10.304688 -6.296875 10.359375 -6.003906 10.359375 -5.699219 L 10.347656 -0.613281 C 10.347656 -0.304688 10.289062 -0.0117188 10.175781 0.269531 C 10.058594 0.558594 9.886719 0.820312 9.664062 1.042969 C 9.441406 1.265625 9.191406 1.433594 8.90625 1.550781 C 8.625 1.667969 8.328125 1.726562 8.011719 1.726562 Z M 3.554688 -1.726562 L 8.011719 -1.726562 C 7.867188 -1.726562 7.722656 -1.699219 7.582031 -1.640625 C 7.441406 -1.582031 7.320312 -1.5 7.21875 -1.398438 C 7.113281 -1.292969 7.03125 -1.167969 6.972656 -1.023438 C 6.917969 -0.886719 6.890625 -0.753906 6.890625 -0.621094 L 6.90625 -5.699219 C 6.90625 -5.566406 6.929688 -5.4375 6.980469 -5.304688 C 7.042969 -5.15625 7.128906 -5.023438 7.238281 -4.910156 C 7.351562 -4.796875 7.484375 -4.710938 7.632812 -4.652344 C 7.765625 -4.601562 7.894531 -4.574219 8.027344 -4.574219 L 5.828125 -4.574219 C 5.964844 -4.574219 6.097656 -4.601562 6.230469 -4.652344 C 6.359375 -4.703125 6.472656 -4.773438 6.570312 -4.867188 C 6.6875 -4.976562 6.78125 -5.109375 6.847656 -5.261719 C 6.90625 -5.40625 6.9375 -5.550781 6.9375 -5.699219 L 6.9375 -3.566406 C 6.9375 -3.25 6.878906 -2.949219 6.757812 -2.664062 C 6.636719 -2.375 6.460938 -2.121094 6.230469 -1.902344 C 6.011719 -1.6875 5.757812 -1.523438 5.480469 -1.414062 C 5.203125 -1.300781 4.910156 -1.246094 4.605469 -1.246094 C 4.296875 -1.246094 4.003906 -1.304688 3.726562 -1.417969 C 3.4375 -1.53125 3.183594 -1.703125 2.964844 -1.921875 C 2.742188 -2.144531 2.570312 -2.398438 2.457031 -2.6875 C 2.34375 -2.964844 2.285156 -3.257812 2.285156 -3.566406 L 2.285156 -6.960938 C 2.285156 -7.265625 2.339844 -7.558594 2.449219 -7.835938 C 2.566406 -8.128906 2.738281 -8.390625 2.964844 -8.617188 C 3.183594 -8.839844 3.4375 -9.007812 3.726562 -9.125 C 4.003906 -9.238281 4.296875 -9.292969 4.605469 -9.292969 L 8.011719 -9.292969 C 7.875 -9.292969 7.738281 -9.265625 7.601562 -9.210938 C 7.445312 -9.148438 7.316406 -9.058594 7.203125 -8.941406 C 7.105469 -8.839844 7.027344 -8.71875 6.972656 -8.582031 C 6.917969 -8.445312 6.890625 -8.308594 6.890625 -8.171875 L 6.890625 -9.921875 C 6.890625 -9.789062 6.917969 -9.660156 6.96875 -9.527344 C 7.027344 -9.378906 7.113281 -9.246094 7.226562 -9.132812 C 7.339844 -9.023438 7.46875 -8.9375 7.621094 -8.878906 C 7.75 -8.824219 7.882812 -8.800781 8.011719 -8.800781 L 3.554688 -8.800781 C 3.289062 -8.800781 3.070312 -8.75 2.894531 -8.648438 C 2.71875 -8.546875 2.585938 -8.410156 2.484375 -8.238281 C 2.382812 -8.0625 2.332031 -7.84375 2.332031 -7.578125 L 2.332031 -2.960938 C 2.332031 -2.695312 2.382812 -2.472656 2.488281 -2.289062 C 2.585938 -2.113281 2.722656 -1.976562 2.894531 -1.878906 C 3.070312 -1.777344 3.289062 -1.726562 3.554688 -1.726562 Z M 3.554688 -1.726562 "/></g></g><g style="fill:#000000;fill-opacity:1;"><g transform="translate(53.462882, 23.497152)"><path style="stroke:none" d="M 1.210938 1.726562 C 0.898438 1.726562 0.597656 1.667969 0.316406 1.550781 C 0.0351562 1.433594 -0.21875 1.265625 -0.4375 1.042969 C -0.660156 0.824219 -0.828125 0.570312 -0.945312 0.289062 C -1.0625 0.00390625 -1.121094 -0.292969 -1.121094 -0.605469 L -1.121094 -2.105469 C -1.121094 -2.417969 -1.0625 -2.71875 -0.949219 -3 C -0.828125 -3.296875 -0.648438 -3.558594 -0.414062 -3.785156 C -0.195312 -3.996094 0.0585938 -4.160156 0.335938 -4.273438 C 0.613281 -4.382812 0.90625 -4.4375 1.210938 -4.4375 L 6.578125 -4.4375 C 6.449219 -4.4375 6.316406 -4.410156 6.1875 -4.359375 C 6.035156 -4.300781 5.90625 -4.214844 5.792969 -4.101562 C 5.683594 -3.996094 5.601562 -3.867188 5.542969 -3.722656 C 5.484375 -3.585938 5.457031 -3.445312 5.457031 -3.304688 C 5.457031 -3.164062 5.484375 -3.027344 5.539062 -2.894531 C 5.59375 -2.753906 5.671875 -2.636719 5.769531 -2.53125 C 5.882812 -2.417969 6.011719 -2.328125 6.164062 -2.265625 C 6.300781 -2.210938 6.441406 -2.179688 6.578125 -2.179688 L 3.488281 -2.179688 C 2.625 -2.179688 1.847656 -2.382812 1.144531 -2.785156 C 0.441406 -3.191406 -0.113281 -3.746094 -0.515625 -4.449219 C -0.921875 -5.148438 -1.121094 -5.929688 -1.121094 -6.789062 L -1.121094 -7.644531 C -1.121094 -8.515625 -0.917969 -9.300781 -0.511719 -10 C -0.109375 -10.695312 0.445312 -11.246094 1.144531 -11.648438 C 1.847656 -12.050781 2.625 -12.253906 3.488281 -12.253906 L 9.988281 -12.253906 C 10.292969 -12.253906 10.585938 -12.199219 10.859375 -12.089844 C 11.15625 -11.976562 11.417969 -11.804688 11.644531 -11.578125 C 11.871094 -11.351562 12.039062 -11.089844 12.15625 -10.792969 C 12.265625 -10.519531 12.320312 -10.226562 12.320312 -9.921875 L 12.320312 -8.433594 C 12.320312 -8.128906 12.265625 -7.839844 12.152344 -7.5625 C 12.042969 -7.28125 11.878906 -7.03125 11.664062 -6.808594 C 11.441406 -6.574219 11.179688 -6.398438 10.882812 -6.273438 C 10.597656 -6.160156 10.300781 -6.101562 9.988281 -6.101562 L 4.605469 -6.101562 C 4.746094 -6.101562 4.886719 -6.128906 5.023438 -6.1875 C 5.171875 -6.246094 5.296875 -6.328125 5.40625 -6.4375 C 5.519531 -6.550781 5.605469 -6.679688 5.664062 -6.832031 C 5.714844 -6.960938 5.742188 -7.09375 5.742188 -7.222656 C 5.742188 -7.367188 5.710938 -7.503906 5.65625 -7.644531 C 5.597656 -7.789062 5.511719 -7.917969 5.40625 -8.023438 C 5.296875 -8.132812 5.171875 -8.214844 5.023438 -8.273438 C 4.886719 -8.332031 4.746094 -8.359375 4.605469 -8.359375 L 7.710938 -8.359375 C 8.582031 -8.359375 9.367188 -8.15625 10.066406 -7.75 C 10.757812 -7.347656 11.308594 -6.796875 11.710938 -6.105469 C 12.117188 -5.40625 12.320312 -4.621094 12.320312 -3.75 L 12.320312 -2.894531 C 12.320312 -2.035156 12.121094 -1.257812 11.71875 -0.550781 C 11.316406 0.15625 10.765625 0.710938 10.066406 1.117188 C 9.367188 1.523438 8.582031 1.726562 7.710938 1.726562 Z M 1.210938 -1.726562 L 7.710938 -1.726562 C 7.960938 -1.726562 8.167969 -1.773438 8.328125 -1.867188 C 8.492188 -1.960938 8.621094 -2.09375 8.71875 -2.261719 C 8.816406 -2.4375 8.867188 -2.648438 8.867188 -2.894531 L 8.867188 -3.75 C 8.867188 -4 8.820312 -4.207031 8.726562 -4.367188 C 8.628906 -4.535156 8.496094 -4.667969 8.328125 -4.765625 C 8.167969 -4.859375 7.960938 -4.90625 7.710938 -4.90625 L 4.605469 -4.90625 C 4.296875 -4.90625 4.003906 -4.960938 3.726562 -5.074219 C 3.4375 -5.191406 3.183594 -5.359375 2.964844 -5.582031 C 2.742188 -5.804688 2.570312 -6.058594 2.457031 -6.34375 C 2.34375 -6.621094 2.285156 -6.914062 2.285156 -7.222656 C 2.285156 -7.53125 2.339844 -7.820312 2.449219 -8.097656 C 2.566406 -8.390625 2.738281 -8.652344 2.964844 -8.878906 C 3.183594 -9.101562 3.4375 -9.269531 3.726562 -9.386719 C 4.003906 -9.5 4.296875 -9.554688 4.605469 -9.554688 L 9.988281 -9.554688 C 9.847656 -9.554688 9.710938 -9.527344 9.574219 -9.472656 C 9.421875 -9.410156 9.289062 -9.320312 9.175781 -9.203125 C 9.078125 -9.101562 9 -8.980469 8.945312 -8.84375 C 8.890625 -8.710938 8.867188 -8.574219 8.867188 -8.433594 L 8.867188 -9.921875 C 8.867188 -9.789062 8.890625 -9.660156 8.941406 -9.527344 C 9.003906 -9.378906 9.089844 -9.246094 9.199219 -9.132812 C 9.3125 -9.023438 9.445312 -8.9375 9.59375 -8.878906 C 9.726562 -8.824219 9.855469 -8.800781 9.988281 -8.800781 L 3.488281 -8.800781 C 3.242188 -8.800781 3.035156 -8.75 2.867188 -8.65625 C 2.699219 -8.558594 2.570312 -8.429688 2.472656 -8.265625 C 2.378906 -8.101562 2.332031 -7.894531 2.332031 -7.644531 L 2.332031 -6.789062 C 2.332031 -6.546875 2.378906 -6.339844 2.476562 -6.171875 C 2.574219 -6.003906 2.703125 -5.875 2.867188 -5.78125 C 3.035156 -5.683594 3.242188 -5.636719 3.488281 -5.636719 L 6.578125 -5.636719 C 6.894531 -5.636719 7.191406 -5.578125 7.472656 -5.460938 C 7.769531 -5.339844 8.03125 -5.164062 8.257812 -4.929688 C 8.472656 -4.707031 8.632812 -4.457031 8.746094 -4.175781 C 8.855469 -3.898438 8.910156 -3.609375 8.910156 -3.304688 C 8.910156 -2.996094 8.855469 -2.699219 8.742188 -2.421875 C 8.625 -2.136719 8.457031 -1.882812 8.234375 -1.660156 C 8.007812 -1.433594 7.746094 -1.261719 7.453125 -1.144531 C 7.175781 -1.039062 6.886719 -0.984375 6.578125 -0.984375 L 1.210938 -0.984375 C 1.347656 -0.984375 1.484375 -1.011719 1.621094 -1.0625 C 1.757812 -1.121094 1.878906 -1.195312 1.980469 -1.296875 C 2.097656 -1.40625 2.1875 -1.539062 2.25 -1.691406 C 2.304688 -1.828125 2.332031 -1.964844 2.332031 -2.105469 L 2.332031 -0.605469 C 2.332031 -0.75 2.304688 -0.894531 2.246094 -1.035156 C 2.1875 -1.175781 2.105469 -1.296875 2.003906 -1.398438 C 1.902344 -1.5 1.78125 -1.582031 1.640625 -1.640625 C 1.5 -1.699219 1.355469 -1.726562 1.210938 -1.726562 Z M 1.210938 -1.726562 "/></g></g><g style="fill:#000000;fill-opacity:1;"><g transform="translate(64.660423, 23.497152)"><path style="stroke:none" d="M 1.210938 1.726562 C 0.898438 1.726562 0.597656 1.667969 0.316406 1.550781 C 0.0351562 1.433594 -0.21875 1.265625 -0.4375 1.042969 C -0.660156 0.824219 -0.828125 0.570312 -0.945312 0.289062 C -1.0625 0.00390625 -1.121094 -0.292969 -1.121094 -0.605469 L -1.121094 -9.921875 C -1.121094 -10.234375 -1.0625 -10.535156 -0.949219 -10.816406 C -0.828125 -11.113281 -0.648438 -11.375 -0.414062 -11.601562 C -0.195312 -11.8125 0.0585938 -11.976562 0.335938 -12.085938 C 0.613281 -12.199219 0.90625 -12.253906 1.210938 -12.253906 L 7.710938 -12.253906 C 8.582031 -12.253906 9.367188 -12.050781 10.066406 -11.644531 C 10.757812 -11.242188 11.308594 -10.695312 11.710938 -10 C 12.117188 -9.300781 12.320312 -8.515625 12.320312 -7.644531 L 12.320312 -6.789062 C 12.320312 -5.929688 12.117188 -5.148438 11.714844 -4.449219 C 11.3125 -3.746094 10.761719 -3.195312 10.066406 -2.789062 C 9.367188 -2.382812 8.582031 -2.179688 7.710938 -2.179688 L 4.617188 -2.179688 C 4.765625 -2.179688 4.910156 -2.210938 5.050781 -2.269531 C 5.1875 -2.328125 5.308594 -2.40625 5.414062 -2.507812 C 5.515625 -2.613281 5.59375 -2.734375 5.652344 -2.871094 C 5.710938 -3.011719 5.742188 -3.15625 5.742188 -3.304688 L 5.742188 -0.605469 C 5.742188 -0.300781 5.683594 -0.0078125 5.574219 0.269531 C 5.460938 0.546875 5.300781 0.800781 5.085938 1.019531 C 4.859375 1.253906 4.597656 1.433594 4.300781 1.554688 C 4.019531 1.667969 3.722656 1.726562 3.40625 1.726562 Z M 1.210938 -1.726562 L 3.40625 -1.726562 C 3.269531 -1.726562 3.132812 -1.699219 2.996094 -1.644531 C 2.839844 -1.582031 2.710938 -1.492188 2.597656 -1.375 C 2.5 -1.273438 2.421875 -1.152344 2.367188 -1.015625 C 2.3125 -0.878906 2.285156 -0.742188 2.285156 -0.605469 L 2.285156 -3.304688 C 2.285156 -3.617188 2.34375 -3.914062 2.460938 -4.199219 C 2.578125 -4.480469 2.75 -4.730469 2.96875 -4.953125 C 3.191406 -5.171875 3.441406 -5.339844 3.722656 -5.457031 C 4.007812 -5.578125 4.304688 -5.636719 4.617188 -5.636719 L 7.710938 -5.636719 C 7.960938 -5.636719 8.167969 -5.683594 8.328125 -5.777344 C 8.492188 -5.871094 8.625 -6.003906 8.722656 -6.171875 C 8.816406 -6.339844 8.867188 -6.546875 8.867188 -6.789062 L 8.867188 -7.644531 C 8.867188 -7.894531 8.820312 -8.101562 8.726562 -8.265625 C 8.628906 -8.429688 8.496094 -8.5625 8.328125 -8.660156 C 8.167969 -8.753906 7.960938 -8.800781 7.710938 -8.800781 L 1.210938 -8.800781 C 1.347656 -8.800781 1.484375 -8.828125 1.621094 -8.878906 C 1.757812 -8.933594 1.878906 -9.011719 1.980469 -9.113281 C 2.097656 -9.222656 2.1875 -9.355469 2.25 -9.507812 C 2.304688 -9.644531 2.332031 -9.78125 2.332031 -9.921875 L 2.332031 -0.605469 C 2.332031 -0.75 2.304688 -0.894531 2.246094 -1.035156 C 2.1875 -1.175781 2.105469 -1.296875 2.003906 -1.398438 C 1.902344 -1.5 1.78125 -1.582031 1.640625 -1.640625 C 1.5 -1.699219 1.355469 -1.726562 1.210938 -1.726562 Z M 4.605469 -8.359375 L 6.578125 -8.359375 C 6.449219 -8.359375 6.316406 -8.332031 6.1875 -8.28125 C 6.035156 -8.222656 5.90625 -8.136719 5.792969 -8.023438 C 5.683594 -7.917969 5.601562 -7.789062 5.542969 -7.644531 C 5.484375 -7.503906 5.457031 -7.367188 5.457031 -7.222656 C 5.457031 -7.09375 5.484375 -6.960938 5.535156 -6.832031 C 5.59375 -6.679688 5.679688 -6.550781 5.792969 -6.4375 C 5.90625 -6.324219 6.035156 -6.238281 6.1875 -6.179688 C 6.316406 -6.128906 6.449219 -6.101562 6.578125 -6.101562 L 4.605469 -6.101562 C 4.746094 -6.101562 4.886719 -6.128906 5.023438 -6.1875 C 5.171875 -6.246094 5.296875 -6.328125 5.40625 -6.4375 C 5.519531 -6.550781 5.605469 -6.679688 5.664062 -6.832031 C 5.714844 -6.960938 5.742188 -7.09375 5.742188 -7.222656 C 5.742188 -7.367188 5.710938 -7.503906 5.65625 -7.644531 C 5.597656 -7.789062 5.511719 -7.917969 5.40625 -8.023438 C 5.296875 -8.132812 5.171875 -8.214844 5.023438 -8.273438 C 4.886719 -8.332031 4.746094 -8.359375 4.605469 -8.359375 Z M 4.605469 -4.90625 C 4.296875 -4.90625 4.003906 -4.960938 3.726562 -5.074219 C 3.4375 -5.191406 3.183594 -5.359375 2.964844 -5.582031 C 2.742188 -5.804688 2.570312 -6.058594 2.457031 -6.34375 C 2.34375 -6.621094 2.285156 -6.914062 2.285156 -7.222656 C 2.285156 -7.53125 2.339844 -7.820312 2.449219 -8.097656 C 2.566406 -8.390625 2.738281 -8.652344 2.964844 -8.878906 C 3.183594 -9.101562 3.4375 -9.269531 3.726562 -9.386719 C 4.003906 -9.5 4.296875 -9.554688 4.605469 -9.554688 L 6.578125 -9.554688 C 6.886719 -9.554688 7.175781 -9.503906 7.453125 -9.394531 C 7.746094 -9.277344 8.007812 -9.105469 8.234375 -8.878906 C 8.460938 -8.652344 8.632812 -8.390625 8.75 -8.097656 C 8.859375 -7.820312 8.910156 -7.53125 8.910156 -7.222656 C 8.910156 -6.914062 8.855469 -6.621094 8.742188 -6.34375 C 8.625 -6.058594 8.457031 -5.804688 8.234375 -5.582031 C 8.007812 -5.355469 7.746094 -5.183594 7.453125 -5.066406 C 7.175781 -4.960938 6.886719 -4.90625 6.578125 -4.90625 Z M 4.605469 -4.90625 "/></g></g><g style="fill:#000000;fill-opacity:1;"><g transform="translate(75.857965, 23.497152)"><path style="stroke:none" d="M 1.210938 1.726562 C 0.898438 1.726562 0.597656 1.667969 0.316406 1.550781 C 0.0351562 1.433594 -0.21875 1.265625 -0.4375 1.042969 C -0.660156 0.824219 -0.828125 0.570312 -0.945312 0.289062 C -1.0625 0.00390625 -1.121094 -0.292969 -1.121094 -0.605469 L -1.121094 -7.578125 C -1.121094 -8.457031 -0.917969 -9.25 -0.511719 -9.960938 C -0.101562 -10.671875 0.460938 -11.234375 1.171875 -11.644531 C 1.882812 -12.050781 2.675781 -12.253906 3.554688 -12.253906 L 5.671875 -12.253906 C 6.546875 -12.253906 7.34375 -12.050781 8.050781 -11.644531 C 8.765625 -11.234375 9.324219 -10.671875 9.734375 -9.960938 C 10.140625 -9.25 10.347656 -8.457031 10.347656 -7.578125 L 10.347656 -0.605469 C 10.347656 -0.300781 10.289062 -0.0078125 10.179688 0.269531 C 10.066406 0.546875 9.90625 0.800781 9.691406 1.019531 C 9.464844 1.253906 9.203125 1.433594 8.90625 1.554688 C 8.625 1.667969 8.328125 1.726562 8.011719 1.726562 L 5.816406 1.726562 C 5.503906 1.726562 5.203125 1.667969 4.921875 1.550781 C 4.640625 1.433594 4.386719 1.265625 4.167969 1.042969 C 3.945312 0.824219 3.777344 0.570312 3.660156 0.289062 C 3.542969 0.00390625 3.484375 -0.292969 3.484375 -0.605469 L 3.484375 -2.304688 C 3.484375 -2.164062 3.511719 -2.027344 3.5625 -1.894531 C 3.621094 -1.753906 3.695312 -1.636719 3.796875 -1.53125 C 3.90625 -1.417969 4.039062 -1.328125 4.191406 -1.265625 C 4.328125 -1.207031 4.46875 -1.179688 4.605469 -1.179688 C 4.746094 -1.179688 4.886719 -1.207031 5.023438 -1.265625 C 5.171875 -1.324219 5.296875 -1.40625 5.40625 -1.515625 C 5.519531 -1.628906 5.605469 -1.757812 5.664062 -1.910156 C 5.714844 -2.039062 5.742188 -2.171875 5.742188 -2.304688 L 5.742188 -0.605469 C 5.742188 -0.300781 5.683594 -0.0078125 5.574219 0.269531 C 5.460938 0.546875 5.300781 0.800781 5.085938 1.019531 C 4.859375 1.253906 4.597656 1.433594 4.300781 1.554688 C 4.019531 1.667969 3.722656 1.726562 3.40625 1.726562 Z M 1.210938 -1.726562 L 3.40625 -1.726562 C 3.269531 -1.726562 3.132812 -1.699219 2.996094 -1.644531 C 2.839844 -1.582031 2.710938 -1.492188 2.597656 -1.375 C 2.5 -1.273438 2.421875 -1.152344 2.367188 -1.015625 C 2.3125 -0.878906 2.285156 -0.742188 2.285156 -0.605469 L 2.285156 -2.304688 C 2.285156 -2.609375 2.339844 -2.898438 2.449219 -3.175781 C 2.566406 -3.472656 2.738281 -3.730469 2.964844 -3.957031 C 3.183594 -4.179688 3.4375 -4.347656 3.726562 -4.464844 C 4.003906 -4.578125 4.296875 -4.636719 4.605469 -4.636719 C 4.917969 -4.636719 5.21875 -4.578125 5.5 -4.460938 C 5.796875 -4.339844 6.058594 -4.164062 6.285156 -3.929688 C 6.496094 -3.707031 6.660156 -3.457031 6.773438 -3.175781 C 6.882812 -2.898438 6.9375 -2.609375 6.9375 -2.304688 L 6.9375 -0.605469 C 6.9375 -0.75 6.910156 -0.894531 6.851562 -1.035156 C 6.792969 -1.175781 6.710938 -1.296875 6.609375 -1.398438 C 6.507812 -1.5 6.386719 -1.582031 6.246094 -1.640625 C 6.105469 -1.699219 5.960938 -1.726562 5.816406 -1.726562 L 8.011719 -1.726562 C 7.875 -1.726562 7.738281 -1.699219 7.601562 -1.644531 C 7.445312 -1.582031 7.316406 -1.492188 7.203125 -1.375 C 7.105469 -1.273438 7.027344 -1.152344 6.972656 -1.015625 C 6.917969 -0.878906 6.890625 -0.742188 6.890625 -0.605469 L 6.890625 -7.578125 C 6.890625 -7.84375 6.839844 -8.0625 6.738281 -8.238281 C 6.640625 -8.410156 6.503906 -8.546875 6.332031 -8.648438 C 6.15625 -8.75 5.933594 -8.800781 5.671875 -8.800781 L 3.554688 -8.800781 C 3.289062 -8.800781 3.070312 -8.75 2.894531 -8.648438 C 2.71875 -8.546875 2.585938 -8.410156 2.484375 -8.238281 C 2.382812 -8.0625 2.332031 -7.84375 2.332031 -7.578125 L 2.332031 -0.605469 C 2.332031 -0.75 2.304688 -0.894531 2.246094 -1.035156 C 2.1875 -1.175781 2.105469 -1.296875 2.003906 -1.398438 C 1.902344 -1.5 1.78125 -1.582031 1.640625 -1.640625 C 1.5 -1.699219 1.355469 -1.726562 1.210938 -1.726562 Z M 4.605469 -7.082031 C 4.472656 -7.082031 4.34375 -7.058594 4.210938 -7.003906 C 4.0625 -6.945312 3.929688 -6.859375 3.820312 -6.746094 C 3.710938 -6.640625 3.628906 -6.511719 3.566406 -6.367188 C 3.511719 -6.230469 3.484375 -6.089844 3.484375 -5.949219 L 3.484375 -7.160156 C 3.484375 -7.027344 3.507812 -6.894531 3.5625 -6.765625 C 3.621094 -6.613281 3.707031 -6.484375 3.820312 -6.371094 C 3.929688 -6.257812 4.0625 -6.171875 4.210938 -6.113281 C 4.34375 -6.0625 4.472656 -6.035156 4.605469 -6.035156 C 4.746094 -6.035156 4.886719 -6.066406 5.023438 -6.121094 C 5.171875 -6.179688 5.296875 -6.261719 5.40625 -6.371094 C 5.519531 -6.484375 5.605469 -6.613281 5.664062 -6.765625 C 5.714844 -6.894531 5.742188 -7.027344 5.742188 -7.160156 L 5.742188 -5.949219 C 5.742188 -6.089844 5.710938 -6.230469 5.65625 -6.367188 C 5.597656 -6.511719 5.511719 -6.640625 5.40625 -6.746094 C 5.296875 -6.855469 5.171875 -6.9375 5.023438 -7 C 4.886719 -7.054688 4.746094 -7.082031 4.605469 -7.082031 Z M 4.605469 -3.628906 C 4.296875 -3.628906 4.003906 -3.683594 3.726562 -3.796875 C 3.4375 -3.914062 3.183594 -4.082031 2.964844 -4.304688 C 2.742188 -4.527344 2.570312 -4.78125 2.457031 -5.066406 C 2.34375 -5.347656 2.285156 -5.640625 2.285156 -5.949219 L 2.285156 -7.160156 C 2.285156 -7.464844 2.339844 -7.753906 2.449219 -8.03125 C 2.566406 -8.328125 2.738281 -8.585938 2.964844 -8.8125 C 3.183594 -9.035156 3.4375 -9.203125 3.726562 -9.320312 C 4.003906 -9.433594 4.296875 -9.492188 4.605469 -9.492188 C 4.910156 -9.492188 5.203125 -9.4375 5.480469 -9.328125 C 5.773438 -9.210938 6.035156 -9.039062 6.261719 -8.8125 C 6.488281 -8.585938 6.660156 -8.328125 6.773438 -8.03125 C 6.882812 -7.753906 6.9375 -7.464844 6.9375 -7.160156 L 6.9375 -5.949219 C 6.9375 -5.640625 6.882812 -5.347656 6.769531 -5.066406 C 6.652344 -4.78125 6.484375 -4.527344 6.261719 -4.304688 C 6.035156 -4.078125 5.773438 -3.90625 5.480469 -3.792969 C 5.203125 -3.683594 4.910156 -3.628906 4.605469 -3.628906 Z M 4.605469 -3.628906 "/></g></g><g style="fill:#000000;fill-opacity:1;"><g transform="translate(85.081791, 23.497152)"><path style="stroke:none" d="M 1.210938 1.726562 C 0.898438 1.726562 0.597656 1.667969 0.316406 1.550781 C 0.0351562 1.433594 -0.21875 1.265625 -0.4375 1.042969 C -0.660156 0.824219 -0.828125 0.570312 -0.945312 0.289062 C -1.0625 0.00390625 -1.121094 -0.292969 -1.121094 -0.605469 L -1.121094 -9.921875 C -1.121094 -10.234375 -1.0625 -10.535156 -0.949219 -10.816406 C -0.828125 -11.113281 -0.648438 -11.375 -0.414062 -11.601562 C -0.195312 -11.8125 0.0585938 -11.976562 0.335938 -12.085938 C 0.613281 -12.199219 0.90625 -12.253906 1.210938 -12.253906 L 8.183594 -12.253906 C 8.953125 -12.253906 9.652344 -12.078125 10.277344 -11.71875 C 10.921875 -11.355469 11.421875 -10.855469 11.785156 -10.214844 C 12.140625 -9.585938 12.320312 -8.886719 12.320312 -8.117188 L 12.320312 -6.988281 C 12.320312 -6.605469 12.253906 -6.246094 12.121094 -5.910156 C 11.980469 -5.554688 11.773438 -5.238281 11.5 -4.964844 C 11.222656 -4.6875 10.90625 -4.480469 10.550781 -4.339844 C 10.214844 -4.207031 9.855469 -4.140625 9.472656 -4.140625 L 9.394531 -4.140625 C 9.535156 -4.140625 9.675781 -4.167969 9.816406 -4.226562 C 9.960938 -4.285156 10.085938 -4.367188 10.195312 -4.476562 C 10.308594 -4.589844 10.394531 -4.71875 10.453125 -4.871094 C 10.503906 -5 10.53125 -5.132812 10.53125 -5.261719 C 10.53125 -5.40625 10.503906 -5.546875 10.445312 -5.683594 C 10.386719 -5.828125 10.304688 -5.957031 10.195312 -6.0625 C 10.085938 -6.171875 9.960938 -6.253906 9.816406 -6.3125 C 9.675781 -6.371094 9.535156 -6.398438 9.394531 -6.398438 L 9.511719 -6.398438 C 9.886719 -6.398438 10.242188 -6.332031 10.570312 -6.203125 C 10.925781 -6.066406 11.238281 -5.863281 11.511719 -5.589844 C 11.78125 -5.316406 11.988281 -5.003906 12.125 -4.652344 C 12.253906 -4.320312 12.320312 -3.964844 12.320312 -3.59375 L 12.320312 -0.617188 C 12.320312 -0.316406 12.265625 -0.0273438 12.15625 0.25 C 12.046875 0.523438 11.890625 0.769531 11.6875 0.992188 C 11.460938 1.234375 11.199219 1.417969 10.902344 1.542969 C 10.613281 1.667969 10.308594 1.726562 9.988281 1.726562 L 7.789062 1.726562 C 7.476562 1.726562 7.179688 1.667969 6.894531 1.550781 C 6.613281 1.433594 6.363281 1.265625 6.140625 1.042969 C 5.921875 0.824219 5.75 0.570312 5.632812 0.289062 C 5.515625 0.00390625 5.457031 -0.292969 5.457031 -0.605469 L 5.457031 -3.34375 C 5.457031 -3.199219 5.484375 -3.0625 5.542969 -2.921875 C 5.601562 -2.777344 5.683594 -2.648438 5.792969 -2.542969 C 5.90625 -2.429688 6.035156 -2.34375 6.1875 -2.285156 C 6.316406 -2.234375 6.449219 -2.207031 6.578125 -2.207031 L 4.605469 -2.207031 C 4.746094 -2.207031 4.886719 -2.234375 5.023438 -2.292969 C 5.171875 -2.351562 5.296875 -2.433594 5.40625 -2.542969 C 5.511719 -2.648438 5.597656 -2.777344 5.65625 -2.921875 C 5.710938 -3.0625 5.742188 -3.199219 5.742188 -3.34375 L 5.742188 -0.617188 C 5.742188 -0.316406 5.6875 -0.0273438 5.578125 0.25 C 5.46875 0.523438 5.3125 0.769531 5.109375 0.992188 C 4.882812 1.234375 4.621094 1.417969 4.324219 1.542969 C 4.035156 1.667969 3.730469 1.726562 3.40625 1.726562 Z M 1.210938 -1.726562 L 3.40625 -1.726562 C 3.261719 -1.726562 3.117188 -1.695312 2.972656 -1.636719 C 2.820312 -1.570312 2.6875 -1.476562 2.578125 -1.359375 C 2.484375 -1.261719 2.414062 -1.148438 2.363281 -1.019531 C 2.3125 -0.886719 2.285156 -0.753906 2.285156 -0.617188 L 2.285156 -3.34375 C 2.285156 -3.652344 2.34375 -3.945312 2.457031 -4.222656 C 2.570312 -4.507812 2.742188 -4.761719 2.964844 -4.984375 C 3.183594 -5.207031 3.4375 -5.375 3.726562 -5.492188 C 4.003906 -5.605469 4.296875 -5.660156 4.605469 -5.660156 L 6.578125 -5.660156 C 6.886719 -5.660156 7.175781 -5.605469 7.453125 -5.5 C 7.746094 -5.382812 8.007812 -5.210938 8.234375 -4.984375 C 8.457031 -4.761719 8.625 -4.507812 8.742188 -4.222656 C 8.855469 -3.945312 8.910156 -3.652344 8.910156 -3.34375 L 8.910156 -0.605469 C 8.910156 -0.75 8.882812 -0.894531 8.824219 -1.035156 C 8.765625 -1.175781 8.6875 -1.296875 8.582031 -1.398438 C 8.480469 -1.5 8.359375 -1.582031 8.21875 -1.640625 C 8.078125 -1.699219 7.9375 -1.726562 7.789062 -1.726562 L 9.988281 -1.726562 C 9.839844 -1.726562 9.695312 -1.695312 9.554688 -1.636719 C 9.398438 -1.570312 9.265625 -1.476562 9.15625 -1.359375 C 9.066406 -1.261719 8.992188 -1.148438 8.941406 -1.019531 C 8.890625 -0.886719 8.867188 -0.753906 8.867188 -0.617188 L 8.867188 -3.59375 C 8.867188 -3.535156 8.878906 -3.46875 8.90625 -3.394531 C 8.945312 -3.300781 9 -3.21875 9.070312 -3.148438 C 9.140625 -3.078125 9.222656 -3.023438 9.316406 -2.988281 C 9.390625 -2.957031 9.453125 -2.945312 9.511719 -2.945312 L 9.394531 -2.945312 C 9.085938 -2.945312 8.792969 -3 8.515625 -3.113281 C 8.230469 -3.230469 7.976562 -3.398438 7.753906 -3.621094 C 7.53125 -3.84375 7.363281 -4.097656 7.246094 -4.382812 C 7.132812 -4.660156 7.074219 -4.957031 7.074219 -5.261719 C 7.074219 -5.570312 7.128906 -5.859375 7.238281 -6.136719 C 7.355469 -6.433594 7.527344 -6.691406 7.753906 -6.917969 C 7.976562 -7.140625 8.230469 -7.308594 8.515625 -7.425781 C 8.792969 -7.539062 9.085938 -7.597656 9.394531 -7.597656 L 9.472656 -7.597656 C 9.417969 -7.597656 9.355469 -7.582031 9.285156 -7.554688 C 9.195312 -7.519531 9.121094 -7.46875 9.054688 -7.40625 C 8.992188 -7.339844 8.941406 -7.265625 8.90625 -7.175781 C 8.878906 -7.105469 8.867188 -7.042969 8.867188 -6.988281 L 8.867188 -8.117188 C 8.867188 -8.28125 8.835938 -8.410156 8.78125 -8.511719 C 8.730469 -8.597656 8.664062 -8.664062 8.578125 -8.714844 C 8.476562 -8.769531 8.347656 -8.800781 8.183594 -8.800781 L 1.210938 -8.800781 C 1.347656 -8.800781 1.484375 -8.828125 1.621094 -8.878906 C 1.757812 -8.933594 1.878906 -9.011719 1.980469 -9.113281 C 2.097656 -9.222656 2.1875 -9.355469 2.25 -9.507812 C 2.304688 -9.644531 2.332031 -9.78125 2.332031 -9.921875 L 2.332031 -0.605469 C 2.332031 -0.75 2.304688 -0.894531 2.246094 -1.035156 C 2.1875 -1.175781 2.105469 -1.296875 2.003906 -1.398438 C 1.902344 -1.5 1.78125 -1.582031 1.640625 -1.640625 C 1.5 -1.699219 1.355469 -1.726562 1.210938 -1.726562 Z M 4.605469 -8.332031 L 6.578125 -8.332031 C 6.449219 -8.332031 6.316406 -8.308594 6.1875 -8.253906 C 6.035156 -8.195312 5.90625 -8.109375 5.792969 -7.996094 C 5.683594 -7.890625 5.601562 -7.761719 5.542969 -7.617188 C 5.484375 -7.480469 5.457031 -7.339844 5.457031 -7.199219 C 5.457031 -7.054688 5.484375 -6.917969 5.542969 -6.777344 C 5.601562 -6.632812 5.683594 -6.503906 5.792969 -6.398438 C 5.90625 -6.285156 6.035156 -6.199219 6.1875 -6.140625 C 6.316406 -6.089844 6.449219 -6.0625 6.578125 -6.0625 L 4.605469 -6.0625 C 4.746094 -6.0625 4.886719 -6.089844 5.023438 -6.148438 C 5.171875 -6.207031 5.296875 -6.289062 5.40625 -6.398438 C 5.511719 -6.503906 5.597656 -6.632812 5.65625 -6.777344 C 5.710938 -6.917969 5.742188 -7.054688 5.742188 -7.199219 C 5.742188 -7.339844 5.710938 -7.480469 5.65625 -7.617188 C 5.597656 -7.761719 5.511719 -7.890625 5.40625 -7.996094 C 5.296875 -8.105469 5.171875 -8.1875 5.023438 -8.25 C 4.886719 -8.304688 4.746094 -8.332031 4.605469 -8.332031 Z M 4.605469 -4.878906 C 4.296875 -4.878906 4.003906 -4.933594 3.726562 -5.046875 C 3.4375 -5.164062 3.183594 -5.332031 2.964844 -5.554688 C 2.742188 -5.777344 2.570312 -6.03125 2.457031 -6.316406 C 2.34375 -6.597656 2.285156 -6.890625 2.285156 -7.199219 C 2.285156 -7.507812 2.34375 -7.800781 2.457031 -8.078125 C 2.570312 -8.363281 2.742188 -8.617188 2.964844 -8.839844 C 3.183594 -9.0625 3.4375 -9.230469 3.726562 -9.347656 C 4.003906 -9.460938 4.296875 -9.515625 4.605469 -9.515625 L 6.578125 -9.515625 C 6.886719 -9.515625 7.175781 -9.460938 7.453125 -9.355469 C 7.746094 -9.238281 8.007812 -9.066406 8.234375 -8.839844 C 8.457031 -8.617188 8.625 -8.363281 8.742188 -8.078125 C 8.855469 -7.800781 8.910156 -7.507812 8.910156 -7.199219 C 8.910156 -6.890625 8.855469 -6.597656 8.742188 -6.316406 C 8.625 -6.03125 8.457031 -5.777344 8.234375 -5.554688 C 8.007812 -5.328125 7.746094 -5.15625 7.453125 -5.042969 C 7.175781 -4.933594 6.886719 -4.878906 6.578125 -4.878906 Z M 4.605469 -4.878906 "/></g></g><g style="fill:#000000;fill-opacity:1;"><g transform="translate(96.279333, 23.497152)"><path style="stroke:none" d="M 1.210938 1.726562 C 0.898438 1.726562 0.597656 1.667969 0.316406 1.550781 C 0.0351562 1.433594 -0.21875 1.265625 -0.4375 1.042969 C -0.660156 0.824219 -0.828125 0.570312 -0.945312 0.289062 C -1.0625 0.00390625 -1.121094 -0.292969 -1.121094 -0.605469 L -1.121094 -9.921875 C -1.121094 -10.234375 -1.0625 -10.535156 -0.949219 -10.816406 C -0.828125 -11.113281 -0.648438 -11.375 -0.414062 -11.601562 C -0.195312 -11.8125 0.0585938 -11.976562 0.335938 -12.085938 C 0.613281 -12.199219 0.90625 -12.253906 1.210938 -12.253906 L 3.40625 -12.253906 C 3.714844 -12.253906 4.003906 -12.199219 4.28125 -12.089844 C 4.578125 -11.976562 4.835938 -11.804688 5.0625 -11.578125 C 5.289062 -11.351562 5.460938 -11.089844 5.578125 -10.792969 C 5.6875 -10.519531 5.742188 -10.226562 5.742188 -9.921875 L 5.742188 -7.382812 C 5.742188 -7.523438 5.710938 -7.664062 5.65625 -7.800781 C 5.597656 -7.949219 5.511719 -8.074219 5.40625 -8.183594 C 5.296875 -8.289062 5.171875 -8.375 5.023438 -8.433594 C 4.886719 -8.488281 4.746094 -8.515625 4.605469 -8.515625 C 4.472656 -8.515625 4.34375 -8.492188 4.210938 -8.441406 C 4.0625 -8.378906 3.929688 -8.292969 3.820312 -8.183594 C 3.710938 -8.074219 3.628906 -7.949219 3.566406 -7.800781 C 3.511719 -7.664062 3.484375 -7.523438 3.484375 -7.382812 L 3.484375 -9.921875 C 3.484375 -10.234375 3.542969 -10.535156 3.65625 -10.816406 C 3.777344 -11.113281 3.957031 -11.375 4.191406 -11.601562 C 4.410156 -11.8125 4.664062 -11.976562 4.941406 -12.085938 C 5.21875 -12.199219 5.511719 -12.253906 5.816406 -12.253906 L 8.011719 -12.253906 C 8.320312 -12.253906 8.609375 -12.199219 8.886719 -12.089844 C 9.183594 -11.976562 9.441406 -11.804688 9.667969 -11.578125 C 9.894531 -11.351562 10.066406 -11.089844 10.183594 -10.792969 C 10.292969 -10.519531 10.347656 -10.226562 10.347656 -9.921875 L 10.347656 -8.460938 C 10.347656 -7.957031 10.230469 -7.488281 10.003906 -7.054688 L 8.472656 -7.855469 L 10.074219 -7.203125 L 9.132812 -4.902344 L 9.109375 -4.859375 C 9.171875 -4.984375 9.203125 -5.125 9.203125 -5.273438 C 9.203125 -5.414062 9.175781 -5.542969 9.121094 -5.660156 L 9.136719 -5.625 L 10.074219 -3.339844 L 8.472656 -2.683594 L 10.019531 -3.457031 C 10.238281 -3.019531 10.347656 -2.558594 10.347656 -2.066406 L 10.347656 -0.605469 C 10.347656 -0.300781 10.289062 -0.0078125 10.179688 0.269531 C 10.066406 0.546875 9.90625 0.800781 9.691406 1.019531 C 9.464844 1.253906 9.203125 1.433594 8.90625 1.554688 C 8.625 1.667969 8.328125 1.726562 8.011719 1.726562 L 5.816406 1.726562 C 5.503906 1.726562 5.203125 1.667969 4.921875 1.550781 C 4.640625 1.433594 4.386719 1.265625 4.167969 1.042969 C 3.945312 0.824219 3.777344 0.570312 3.660156 0.289062 C 3.542969 0.00390625 3.484375 -0.292969 3.484375 -0.605469 L 3.484375 -3.144531 C 3.484375 -3.007812 3.511719 -2.871094 3.5625 -2.734375 C 3.621094 -2.597656 3.695312 -2.476562 3.796875 -2.375 C 3.90625 -2.257812 4.039062 -2.167969 4.191406 -2.105469 C 4.328125 -2.050781 4.46875 -2.023438 4.605469 -2.023438 C 4.746094 -2.023438 4.886719 -2.050781 5.023438 -2.105469 C 5.171875 -2.167969 5.296875 -2.25 5.40625 -2.359375 C 5.519531 -2.46875 5.605469 -2.601562 5.664062 -2.753906 C 5.714844 -2.882812 5.742188 -3.015625 5.742188 -3.144531 L 5.742188 -0.605469 C 5.742188 -0.300781 5.683594 -0.0078125 5.574219 0.269531 C 5.460938 0.546875 5.300781 0.800781 5.085938 1.019531 C 4.859375 1.253906 4.597656 1.433594 4.300781 1.554688 C 4.019531 1.667969 3.722656 1.726562 3.40625 1.726562 Z M 1.210938 -1.726562 L 3.40625 -1.726562 C 3.269531 -1.726562 3.132812 -1.699219 2.996094 -1.644531 C 2.839844 -1.582031 2.710938 -1.492188 2.597656 -1.375 C 2.5 -1.273438 2.421875 -1.152344 2.367188 -1.015625 C 2.3125 -0.878906 2.285156 -0.742188 2.285156 -0.605469 L 2.285156 -3.144531 C 2.285156 -3.453125 2.339844 -3.742188 2.449219 -4.019531 C 2.566406 -4.3125 2.738281 -4.574219 2.964844 -4.800781 C 3.183594 -5.023438 3.4375 -5.191406 3.726562 -5.308594 C 4.003906 -5.421875 4.296875 -5.476562 4.605469 -5.476562 C 4.917969 -5.476562 5.21875 -5.417969 5.5 -5.304688 C 5.796875 -5.183594 6.058594 -5.003906 6.285156 -4.769531 C 6.496094 -4.550781 6.660156 -4.296875 6.773438 -4.019531 C 6.882812 -3.742188 6.9375 -3.449219 6.9375 -3.144531 L 6.9375 -0.605469 C 6.9375 -0.75 6.910156 -0.894531 6.851562 -1.035156 C 6.792969 -1.175781 6.710938 -1.296875 6.609375 -1.398438 C 6.507812 -1.5 6.386719 -1.582031 6.246094 -1.640625 C 6.105469 -1.699219 5.960938 -1.726562 5.816406 -1.726562 L 8.011719 -1.726562 C 7.875 -1.726562 7.738281 -1.699219 7.601562 -1.644531 C 7.445312 -1.582031 7.316406 -1.492188 7.203125 -1.375 C 7.105469 -1.273438 7.027344 -1.152344 6.972656 -1.015625 C 6.917969 -0.878906 6.890625 -0.742188 6.890625 -0.605469 L 6.890625 -2.066406 C 6.890625 -2.011719 6.902344 -1.960938 6.929688 -1.910156 L 6.898438 -1.96875 L 5.953125 -4.28125 L 7.554688 -4.933594 L 5.984375 -4.210938 C 5.828125 -4.554688 5.746094 -4.910156 5.746094 -5.273438 C 5.746094 -5.648438 5.828125 -6.007812 5.996094 -6.351562 L 7.554688 -5.605469 L 5.953125 -6.261719 L 6.90625 -8.585938 L 6.945312 -8.65625 C 6.910156 -8.589844 6.890625 -8.523438 6.890625 -8.460938 L 6.890625 -9.921875 C 6.890625 -9.789062 6.917969 -9.660156 6.96875 -9.527344 C 7.027344 -9.378906 7.113281 -9.246094 7.226562 -9.132812 C 7.339844 -9.023438 7.46875 -8.9375 7.621094 -8.878906 C 7.75 -8.824219 7.882812 -8.800781 8.011719 -8.800781 L 5.816406 -8.800781 C 5.953125 -8.800781 6.089844 -8.828125 6.226562 -8.878906 C 6.363281 -8.933594 6.484375 -9.011719 6.585938 -9.113281 C 6.703125 -9.222656 6.792969 -9.355469 6.855469 -9.507812 C 6.910156 -9.644531 6.9375 -9.78125 6.9375 -9.921875 L 6.9375 -7.382812 C 6.9375 -7.074219 6.882812 -6.78125 6.769531 -6.5 C 6.652344 -6.214844 6.484375 -5.960938 6.261719 -5.738281 C 6.035156 -5.511719 5.773438 -5.34375 5.480469 -5.226562 C 5.203125 -5.117188 4.910156 -5.0625 4.605469 -5.0625 C 4.296875 -5.0625 4.003906 -5.121094 3.726562 -5.234375 C 3.4375 -5.347656 3.183594 -5.519531 2.964844 -5.738281 C 2.742188 -5.960938 2.570312 -6.214844 2.457031 -6.5 C 2.34375 -6.78125 2.285156 -7.074219 2.285156 -7.382812 L 2.285156 -9.921875 C 2.285156 -9.789062 2.3125 -9.660156 2.363281 -9.527344 C 2.421875 -9.378906 2.507812 -9.246094 2.621094 -9.132812 C 2.734375 -9.023438 2.863281 -8.9375 3.015625 -8.878906 C 3.144531 -8.824219 3.277344 -8.800781 3.40625 -8.800781 L 1.210938 -8.800781 C 1.347656 -8.800781 1.484375 -8.828125 1.621094 -8.878906 C 1.757812 -8.933594 1.878906 -9.011719 1.980469 -9.113281 C 2.097656 -9.222656 2.1875 -9.355469 2.25 -9.507812 C 2.304688 -9.644531 2.332031 -9.78125 2.332031 -9.921875 L 2.332031 -0.605469 C 2.332031 -0.75 2.304688 -0.894531 2.246094 -1.035156 C 2.1875 -1.175781 2.105469 -1.296875 2.003906 -1.398438 C 1.902344 -1.5 1.78125 -1.582031 1.640625 -1.640625 C 1.5 -1.699219 1.355469 -1.726562 1.210938 -1.726562 Z M 1.210938 -1.726562 "/></g></g><g style="fill:#ffffff;fill-opacity:1;"><g transform="translate(44.239055, 23.497152)"><path style="stroke:none" d="M 3.546875 0 C 2.984375 0 2.476562 -0.125 2.03125 -0.375 C 1.59375 -0.632812 1.242188 -0.988281 0.984375 -1.4375 C 0.734375 -1.882812 0.609375 -2.390625 0.609375 -2.953125 L 0.609375 -7.578125 C 0.609375 -8.148438 0.734375 -8.65625 0.984375 -9.09375 C 1.242188 -9.539062 1.59375 -9.890625 2.03125 -10.140625 C 2.476562 -10.398438 2.984375 -10.53125 3.546875 -10.53125 L 8.015625 -10.53125 C 8.191406 -10.53125 8.335938 -10.472656 8.453125 -10.359375 C 8.566406 -10.242188 8.625 -10.097656 8.625 -9.921875 L 8.625 -8.171875 C 8.625 -8.003906 8.566406 -7.859375 8.453125 -7.734375 C 8.335938 -7.617188 8.191406 -7.5625 8.015625 -7.5625 L 4.609375 -7.5625 C 4.441406 -7.5625 4.300781 -7.503906 4.1875 -7.390625 C 4.070312 -7.273438 4.015625 -7.128906 4.015625 -6.953125 L 4.015625 -3.5625 C 4.015625 -3.394531 4.070312 -3.253906 4.1875 -3.140625 C 4.300781 -3.023438 4.441406 -2.96875 4.609375 -2.96875 C 4.773438 -2.96875 4.914062 -3.023438 5.03125 -3.140625 C 5.144531 -3.253906 5.203125 -3.394531 5.203125 -3.5625 L 5.203125 -5.703125 C 5.203125 -5.867188 5.265625 -6.007812 5.390625 -6.125 C 5.515625 -6.238281 5.660156 -6.296875 5.828125 -6.296875 L 8.03125 -6.296875 C 8.195312 -6.296875 8.335938 -6.238281 8.453125 -6.125 C 8.566406 -6.007812 8.625 -5.867188 8.625 -5.703125 L 8.625 -0.625 C 8.625 -0.445312 8.5625 -0.296875 8.4375 -0.171875 C 8.320312 -0.0546875 8.179688 0 8.015625 0 Z M 3.546875 0 "/></g></g><g style="fill:#ffffff;fill-opacity:1;"><g transform="translate(53.462882, 23.497152)"><path style="stroke:none" d="M 1.203125 0 C 1.035156 0 0.894531 -0.0546875 0.78125 -0.171875 C 0.664062 -0.296875 0.609375 -0.441406 0.609375 -0.609375 L 0.609375 -2.109375 C 0.609375 -2.285156 0.664062 -2.425781 0.78125 -2.53125 C 0.894531 -2.644531 1.035156 -2.703125 1.203125 -2.703125 L 6.578125 -2.703125 C 6.753906 -2.703125 6.898438 -2.757812 7.015625 -2.875 C 7.128906 -2.988281 7.1875 -3.128906 7.1875 -3.296875 C 7.1875 -3.460938 7.128906 -3.601562 7.015625 -3.71875 C 6.898438 -3.84375 6.753906 -3.90625 6.578125 -3.90625 L 3.484375 -3.90625 C 2.929688 -3.90625 2.4375 -4.03125 2 -4.28125 C 1.570312 -4.53125 1.234375 -4.867188 0.984375 -5.296875 C 0.734375 -5.734375 0.609375 -6.226562 0.609375 -6.78125 L 0.609375 -7.640625 C 0.609375 -8.203125 0.734375 -8.695312 0.984375 -9.125 C 1.234375 -9.5625 1.570312 -9.90625 2 -10.15625 C 2.4375 -10.40625 2.929688 -10.53125 3.484375 -10.53125 L 9.984375 -10.53125 C 10.160156 -10.53125 10.304688 -10.472656 10.421875 -10.359375 C 10.535156 -10.242188 10.59375 -10.097656 10.59375 -9.921875 L 10.59375 -8.4375 C 10.59375 -8.269531 10.535156 -8.125 10.421875 -8 C 10.304688 -7.882812 10.160156 -7.828125 9.984375 -7.828125 L 4.609375 -7.828125 C 4.441406 -7.828125 4.300781 -7.769531 4.1875 -7.65625 C 4.070312 -7.539062 4.015625 -7.394531 4.015625 -7.21875 C 4.015625 -7.050781 4.070312 -6.910156 4.1875 -6.796875 C 4.300781 -6.679688 4.441406 -6.625 4.609375 -6.625 L 7.703125 -6.625 C 8.265625 -6.625 8.757812 -6.5 9.1875 -6.25 C 9.625 -6 9.96875 -5.660156 10.21875 -5.234375 C 10.46875 -4.804688 10.59375 -4.3125 10.59375 -3.75 L 10.59375 -2.890625 C 10.59375 -2.335938 10.46875 -1.84375 10.21875 -1.40625 C 9.96875 -0.96875 9.625 -0.625 9.1875 -0.375 C 8.757812 -0.125 8.265625 0 7.703125 0 Z M 1.203125 0 "/></g></g><g style="fill:#ffffff;fill-opacity:1;"><g transform="translate(64.660423, 23.497152)"><path style="stroke:none" d="M 1.203125 0 C 1.035156 0 0.894531 -0.0546875 0.78125 -0.171875 C 0.664062 -0.296875 0.609375 -0.441406 0.609375 -0.609375 L 0.609375 -9.921875 C 0.609375 -10.097656 0.664062 -10.242188 0.78125 -10.359375 C 0.894531 -10.472656 1.035156 -10.53125 1.203125 -10.53125 L 7.703125 -10.53125 C 8.265625 -10.53125 8.757812 -10.40625 9.1875 -10.15625 C 9.625 -9.90625 9.96875 -9.5625 10.21875 -9.125 C 10.46875 -8.695312 10.59375 -8.203125 10.59375 -7.640625 L 10.59375 -6.78125 C 10.59375 -6.226562 10.46875 -5.734375 10.21875 -5.296875 C 9.96875 -4.867188 9.625 -4.53125 9.1875 -4.28125 C 8.757812 -4.03125 8.265625 -3.90625 7.703125 -3.90625 L 4.625 -3.90625 C 4.457031 -3.90625 4.3125 -3.84375 4.1875 -3.71875 C 4.070312 -3.601562 4.015625 -3.460938 4.015625 -3.296875 L 4.015625 -0.609375 C 4.015625 -0.441406 3.957031 -0.296875 3.84375 -0.171875 C 3.726562 -0.0546875 3.582031 0 3.40625 0 Z M 4.609375 -6.625 L 6.578125 -6.625 C 6.753906 -6.625 6.898438 -6.679688 7.015625 -6.796875 C 7.128906 -6.910156 7.1875 -7.050781 7.1875 -7.21875 C 7.1875 -7.394531 7.128906 -7.539062 7.015625 -7.65625 C 6.898438 -7.769531 6.753906 -7.828125 6.578125 -7.828125 L 4.609375 -7.828125 C 4.441406 -7.828125 4.300781 -7.769531 4.1875 -7.65625 C 4.070312 -7.539062 4.015625 -7.394531 4.015625 -7.21875 C 4.015625 -7.050781 4.070312 -6.910156 4.1875 -6.796875 C 4.300781 -6.679688 4.441406 -6.625 4.609375 -6.625 Z M 4.609375 -6.625 "/></g></g><g style="fill:#ffffff;fill-opacity:1;"><g transform="translate(75.857965, 23.497152)"><path style="stroke:none" d="M 1.203125 0 C 1.035156 0 0.894531 -0.0546875 0.78125 -0.171875 C 0.664062 -0.296875 0.609375 -0.441406 0.609375 -0.609375 L 0.609375 -7.578125 C 0.609375 -8.148438 0.734375 -8.65625 0.984375 -9.09375 C 1.242188 -9.539062 1.59375 -9.890625 2.03125 -10.140625 C 2.476562 -10.398438 2.984375 -10.53125 3.546875 -10.53125 L 5.671875 -10.53125 C 6.242188 -10.53125 6.75 -10.398438 7.1875 -10.140625 C 7.632812 -9.890625 7.984375 -9.539062 8.234375 -9.09375 C 8.492188 -8.65625 8.625 -8.148438 8.625 -7.578125 L 8.625 -0.609375 C 8.625 -0.441406 8.566406 -0.296875 8.453125 -0.171875 C 8.335938 -0.0546875 8.191406 0 8.015625 0 L 5.8125 0 C 5.644531 0 5.5 -0.0546875 5.375 -0.171875 C 5.257812 -0.296875 5.203125 -0.441406 5.203125 -0.609375 L 5.203125 -2.296875 C 5.203125 -2.460938 5.144531 -2.601562 5.03125 -2.71875 C 4.925781 -2.84375 4.785156 -2.90625 4.609375 -2.90625 C 4.441406 -2.90625 4.300781 -2.847656 4.1875 -2.734375 C 4.070312 -2.617188 4.015625 -2.472656 4.015625 -2.296875 L 4.015625 -0.609375 C 4.015625 -0.441406 3.957031 -0.296875 3.84375 -0.171875 C 3.726562 -0.0546875 3.582031 0 3.40625 0 Z M 4.609375 -5.359375 C 4.785156 -5.359375 4.925781 -5.414062 5.03125 -5.53125 C 5.144531 -5.644531 5.203125 -5.785156 5.203125 -5.953125 L 5.203125 -7.15625 C 5.203125 -7.332031 5.144531 -7.476562 5.03125 -7.59375 C 4.925781 -7.707031 4.785156 -7.765625 4.609375 -7.765625 C 4.441406 -7.765625 4.300781 -7.707031 4.1875 -7.59375 C 4.070312 -7.476562 4.015625 -7.332031 4.015625 -7.15625 L 4.015625 -5.953125 C 4.015625 -5.785156 4.070312 -5.644531 4.1875 -5.53125 C 4.300781 -5.414062 4.441406 -5.359375 4.609375 -5.359375 Z M 4.609375 -5.359375 "/></g></g><g style="fill:#ffffff;fill-opacity:1;"><g transform="translate(85.081791, 23.497152)"><path style="stroke:none" d="M 1.203125 0 C 1.035156 0 0.894531 -0.0546875 0.78125 -0.171875 C 0.664062 -0.296875 0.609375 -0.441406 0.609375 -0.609375 L 0.609375 -9.921875 C 0.609375 -10.097656 0.664062 -10.242188 0.78125 -10.359375 C 0.894531 -10.472656 1.035156 -10.53125 1.203125 -10.53125 L 8.1875 -10.53125 C 8.644531 -10.53125 9.054688 -10.425781 9.421875 -10.21875 C 9.785156 -10.007812 10.070312 -9.722656 10.28125 -9.359375 C 10.488281 -8.992188 10.59375 -8.582031 10.59375 -8.125 L 10.59375 -6.984375 C 10.59375 -6.660156 10.484375 -6.394531 10.265625 -6.1875 C 10.054688 -5.976562 9.789062 -5.875 9.46875 -5.875 L 9.390625 -5.875 C 9.222656 -5.875 9.082031 -5.816406 8.96875 -5.703125 C 8.851562 -5.585938 8.796875 -5.441406 8.796875 -5.265625 C 8.796875 -5.097656 8.851562 -4.957031 8.96875 -4.84375 C 9.082031 -4.726562 9.222656 -4.671875 9.390625 -4.671875 L 9.515625 -4.671875 C 9.828125 -4.671875 10.082031 -4.566406 10.28125 -4.359375 C 10.488281 -4.160156 10.59375 -3.90625 10.59375 -3.59375 L 10.59375 -0.625 C 10.59375 -0.457031 10.535156 -0.3125 10.421875 -0.1875 C 10.304688 -0.0625 10.160156 0 9.984375 0 L 7.78125 0 C 7.613281 0 7.472656 -0.0546875 7.359375 -0.171875 C 7.242188 -0.296875 7.1875 -0.441406 7.1875 -0.609375 L 7.1875 -3.34375 C 7.1875 -3.507812 7.128906 -3.648438 7.015625 -3.765625 C 6.898438 -3.878906 6.753906 -3.9375 6.578125 -3.9375 L 4.609375 -3.9375 C 4.441406 -3.9375 4.300781 -3.878906 4.1875 -3.765625 C 4.070312 -3.648438 4.015625 -3.507812 4.015625 -3.34375 L 4.015625 -0.625 C 4.015625 -0.457031 3.957031 -0.3125 3.84375 -0.1875 C 3.726562 -0.0625 3.582031 0 3.40625 0 Z M 4.609375 -6.609375 L 6.578125 -6.609375 C 6.753906 -6.609375 6.898438 -6.664062 7.015625 -6.78125 C 7.128906 -6.894531 7.1875 -7.035156 7.1875 -7.203125 C 7.1875 -7.367188 7.128906 -7.503906 7.015625 -7.609375 C 6.898438 -7.722656 6.753906 -7.78125 6.578125 -7.78125 L 4.609375 -7.78125 C 4.441406 -7.78125 4.300781 -7.722656 4.1875 -7.609375 C 4.070312 -7.503906 4.015625 -7.367188 4.015625 -7.203125 C 4.015625 -7.035156 4.070312 -6.894531 4.1875 -6.78125 C 4.300781 -6.664062 4.441406 -6.609375 4.609375 -6.609375 Z M 4.609375 -6.609375 "/></g></g><g style="fill:#ffffff;fill-opacity:1;"><g transform="translate(96.279333, 23.497152)"><path style="stroke:none" d="M 1.203125 0 C 1.035156 0 0.894531 -0.0546875 0.78125 -0.171875 C 0.664062 -0.296875 0.609375 -0.441406 0.609375 -0.609375 L 0.609375 -9.921875 C 0.609375 -10.097656 0.664062 -10.242188 0.78125 -10.359375 C 0.894531 -10.472656 1.035156 -10.53125 1.203125 -10.53125 L 3.40625 -10.53125 C 3.582031 -10.53125 3.726562 -10.472656 3.84375 -10.359375 C 3.957031 -10.242188 4.015625 -10.097656 4.015625 -9.921875 L 4.015625 -7.375 C 4.015625 -7.207031 4.070312 -7.066406 4.1875 -6.953125 C 4.300781 -6.835938 4.441406 -6.78125 4.609375 -6.78125 C 4.785156 -6.78125 4.925781 -6.835938 5.03125 -6.953125 C 5.144531 -7.066406 5.203125 -7.207031 5.203125 -7.375 L 5.203125 -9.921875 C 5.203125 -10.097656 5.257812 -10.242188 5.375 -10.359375 C 5.5 -10.472656 5.644531 -10.53125 5.8125 -10.53125 L 8.015625 -10.53125 C 8.191406 -10.53125 8.335938 -10.472656 8.453125 -10.359375 C 8.566406 -10.242188 8.625 -10.097656 8.625 -9.921875 L 8.625 -8.453125 C 8.625 -8.234375 8.570312 -8.035156 8.46875 -7.859375 L 7.546875 -5.609375 C 7.441406 -5.390625 7.441406 -5.164062 7.546875 -4.9375 L 8.46875 -2.6875 C 8.570312 -2.488281 8.625 -2.28125 8.625 -2.0625 L 8.625 -0.609375 C 8.625 -0.441406 8.566406 -0.296875 8.453125 -0.171875 C 8.335938 -0.0546875 8.191406 0 8.015625 0 L 5.8125 0 C 5.644531 0 5.5 -0.0546875 5.375 -0.171875 C 5.257812 -0.296875 5.203125 -0.441406 5.203125 -0.609375 L 5.203125 -3.140625 C 5.203125 -3.304688 5.144531 -3.445312 5.03125 -3.5625 C 4.925781 -3.6875 4.785156 -3.75 4.609375 -3.75 C 4.441406 -3.75 4.300781 -3.691406 4.1875 -3.578125 C 4.070312 -3.460938 4.015625 -3.316406 4.015625 -3.140625 L 4.015625 -0.609375 C 4.015625 -0.441406 3.957031 -0.296875 3.84375 -0.171875 C 3.726562 -0.0546875 3.582031 0 3.40625 0 Z M 1.203125 0 "/></g></g><g style="fill:#3bf60d;fill-opacity:1;"><g transform="translate(44.660549, 8.987148)"><path style="stroke:none" d="M 1.40625 0 C 1.082031 0 0.828125 -0.0820312 0.640625 -0.25 C 0.453125 -0.425781 0.359375 -0.675781 0.359375 -1 L 0.359375 -3.609375 C 0.359375 -3.910156 0.445312 -4.144531 0.625 -4.3125 C 0.800781 -4.488281 1.046875 -4.578125 1.359375 -4.578125 L 3.390625 -4.578125 C 3.523438 -4.578125 3.625 -4.546875 3.6875 -4.484375 C 3.757812 -4.421875 3.796875 -4.335938 3.796875 -4.234375 C 3.796875 -4.128906 3.757812 -4.046875 3.6875 -3.984375 C 3.613281 -3.929688 3.515625 -3.90625 3.390625 -3.90625 L 1.515625 -3.90625 C 1.429688 -3.90625 1.363281 -3.875 1.3125 -3.8125 C 1.257812 -3.757812 1.234375 -3.679688 1.234375 -3.578125 L 1.234375 -2.671875 L 2.90625 -2.671875 C 3.03125 -2.671875 3.128906 -2.640625 3.203125 -2.578125 C 3.273438 -2.523438 3.3125 -2.441406 3.3125 -2.328125 C 3.3125 -2.222656 3.273438 -2.140625 3.203125 -2.078125 C 3.128906 -2.023438 3.03125 -2 2.90625 -2 L 1.234375 -2 L 1.234375 -1 C 1.234375 -0.894531 1.257812 -0.8125 1.3125 -0.75 C 1.363281 -0.695312 1.429688 -0.671875 1.515625 -0.671875 L 3.546875 -0.671875 C 3.671875 -0.671875 3.765625 -0.640625 3.828125 -0.578125 C 3.898438 -0.523438 3.9375 -0.441406 3.9375 -0.328125 C 3.9375 -0.222656 3.898438 -0.140625 3.828125 -0.078125 C 3.765625 -0.0234375 3.671875 0 3.546875 0 Z M 1.40625 0 "/></g></g><g style="fill:#3bf60d;fill-opacity:1;"><g transform="translate(48.901546, 8.987148)"><path style="stroke:none" d="M 0.671875 -1.25 C 0.546875 -1.25 0.445312 -1.28125 0.375 -1.34375 C 0.300781 -1.40625 0.265625 -1.488281 0.265625 -1.59375 C 0.265625 -1.695312 0.300781 -1.773438 0.375 -1.828125 C 0.445312 -1.890625 0.546875 -1.921875 0.671875 -1.921875 L 2.625 -1.921875 C 2.757812 -1.921875 2.863281 -1.890625 2.9375 -1.828125 C 3.007812 -1.773438 3.046875 -1.695312 3.046875 -1.59375 C 3.046875 -1.488281 3.007812 -1.40625 2.9375 -1.34375 C 2.863281 -1.28125 2.757812 -1.25 2.625 -1.25 Z M 0.671875 -1.25 "/></g></g><g style="fill:#3bf60d;fill-opacity:1;"><g transform="translate(52.202999, 8.987148)"><path style="stroke:none" d="M 2.578125 0.0625 C 2.148438 0.0625 1.75 -0.00390625 1.375 -0.140625 C 1 -0.285156 0.671875 -0.488281 0.390625 -0.75 C 0.328125 -0.820312 0.296875 -0.898438 0.296875 -0.984375 C 0.296875 -1.078125 0.34375 -1.164062 0.4375 -1.25 C 0.5 -1.320312 0.570312 -1.359375 0.65625 -1.359375 C 0.75 -1.359375 0.851562 -1.304688 0.96875 -1.203125 C 1.175781 -1.015625 1.421875 -0.867188 1.703125 -0.765625 C 1.984375 -0.671875 2.273438 -0.625 2.578125 -0.625 C 2.859375 -0.625 3.078125 -0.671875 3.234375 -0.765625 C 3.398438 -0.867188 3.484375 -1.007812 3.484375 -1.1875 C 3.484375 -1.375 3.394531 -1.523438 3.21875 -1.640625 C 3.050781 -1.753906 2.757812 -1.859375 2.34375 -1.953125 C 1.6875 -2.085938 1.207031 -2.273438 0.90625 -2.515625 C 0.601562 -2.753906 0.453125 -3.054688 0.453125 -3.421875 C 0.453125 -3.660156 0.53125 -3.867188 0.6875 -4.046875 C 0.84375 -4.234375 1.0625 -4.378906 1.34375 -4.484375 C 1.625 -4.585938 1.945312 -4.640625 2.3125 -4.640625 C 2.71875 -4.640625 3.078125 -4.570312 3.390625 -4.4375 C 3.703125 -4.300781 3.941406 -4.113281 4.109375 -3.875 C 4.171875 -3.789062 4.203125 -3.710938 4.203125 -3.640625 C 4.191406 -3.535156 4.132812 -3.441406 4.03125 -3.359375 C 3.976562 -3.328125 3.914062 -3.3125 3.84375 -3.3125 C 3.707031 -3.3125 3.59375 -3.363281 3.5 -3.46875 C 3.375 -3.613281 3.207031 -3.726562 3 -3.8125 C 2.789062 -3.90625 2.5625 -3.953125 2.3125 -3.953125 C 2 -3.953125 1.753906 -3.90625 1.578125 -3.8125 C 1.410156 -3.71875 1.328125 -3.585938 1.328125 -3.421875 C 1.328125 -3.253906 1.410156 -3.117188 1.578125 -3.015625 C 1.742188 -2.910156 2.035156 -2.804688 2.453125 -2.703125 C 2.910156 -2.597656 3.28125 -2.476562 3.5625 -2.34375 C 3.84375 -2.207031 4.046875 -2.046875 4.171875 -1.859375 C 4.296875 -1.671875 4.359375 -1.445312 4.359375 -1.1875 C 4.359375 -0.9375 4.285156 -0.710938 4.140625 -0.515625 C 3.992188 -0.328125 3.785156 -0.179688 3.515625 -0.078125 C 3.242188 0.015625 2.929688 0.0625 2.578125 0.0625 Z M 2.578125 0.0625 "/></g></g><g style="fill:#3bf60d;fill-opacity:1;"><g transform="translate(56.861571, 8.987148)"><path style="stroke:none" d="M 0.796875 0.0625 C 0.660156 0.0625 0.550781 0.03125 0.46875 -0.03125 C 0.394531 -0.101562 0.359375 -0.203125 0.359375 -0.328125 L 0.359375 -3.609375 C 0.359375 -3.910156 0.445312 -4.144531 0.625 -4.3125 C 0.800781 -4.488281 1.046875 -4.578125 1.359375 -4.578125 L 2.46875 -4.578125 C 3.132812 -4.578125 3.640625 -4.4375 3.984375 -4.15625 C 4.328125 -3.882812 4.5 -3.484375 4.5 -2.953125 C 4.5 -2.421875 4.328125 -2.015625 3.984375 -1.734375 C 3.648438 -1.460938 3.160156 -1.328125 2.515625 -1.328125 L 1.234375 -1.328125 L 1.234375 -0.328125 C 1.234375 -0.210938 1.191406 -0.117188 1.109375 -0.046875 C 1.035156 0.0234375 0.929688 0.0625 0.796875 0.0625 Z M 2.5 -2 C 3.25 -2 3.625 -2.316406 3.625 -2.953125 C 3.625 -3.585938 3.25 -3.90625 2.5 -3.90625 L 1.515625 -3.90625 C 1.429688 -3.90625 1.363281 -3.875 1.3125 -3.8125 C 1.257812 -3.757812 1.234375 -3.679688 1.234375 -3.578125 L 1.234375 -2 Z M 2.5 -2 "/></g></g><g style="fill:#3bf60d;fill-opacity:1;"><g transform="translate(61.65064, 8.987148)"><path style="stroke:none" d="M 2.75 0.0625 C 2.238281 0.0625 1.796875 -0.0351562 1.421875 -0.234375 C 1.054688 -0.429688 0.773438 -0.707031 0.578125 -1.0625 C 0.390625 -1.414062 0.296875 -1.820312 0.296875 -2.28125 C 0.296875 -2.75 0.390625 -3.160156 0.578125 -3.515625 C 0.773438 -3.867188 1.054688 -4.144531 1.421875 -4.34375 C 1.796875 -4.539062 2.238281 -4.640625 2.75 -4.640625 C 3.25 -4.640625 3.679688 -4.539062 4.046875 -4.34375 C 4.421875 -4.144531 4.703125 -3.867188 4.890625 -3.515625 C 5.085938 -3.160156 5.1875 -2.75 5.1875 -2.28125 C 5.1875 -1.820312 5.085938 -1.414062 4.890625 -1.0625 C 4.703125 -0.707031 4.421875 -0.429688 4.046875 -0.234375 C 3.679688 -0.0351562 3.25 0.0625 2.75 0.0625 Z M 2.75 -0.625 C 3.238281 -0.625 3.617188 -0.769531 3.890625 -1.0625 C 4.171875 -1.363281 4.3125 -1.769531 4.3125 -2.28125 C 4.3125 -2.800781 4.164062 -3.207031 3.875 -3.5 C 3.59375 -3.800781 3.191406 -3.953125 2.671875 -3.953125 C 2.203125 -3.953125 1.832031 -3.800781 1.5625 -3.5 C 1.300781 -3.195312 1.171875 -2.789062 1.171875 -2.28125 C 1.171875 -1.769531 1.304688 -1.363281 1.578125 -1.0625 C 1.859375 -0.769531 2.25 -0.625 2.75 -0.625 Z M 2.75 -0.625 "/></g></g><g style="fill:#3bf60d;fill-opacity:1;"><g transform="translate(67.131316, 8.987148)"><path style="stroke:none" d="M 0.359375 -3.609375 C 0.359375 -3.910156 0.445312 -4.144531 0.625 -4.3125 C 0.800781 -4.488281 1.046875 -4.578125 1.359375 -4.578125 L 2.53125 -4.578125 C 3.175781 -4.578125 3.664062 -4.445312 4 -4.1875 C 4.332031 -3.9375 4.5 -3.5625 4.5 -3.0625 C 4.5 -2.59375 4.359375 -2.226562 4.078125 -1.96875 C 3.796875 -1.707031 3.425781 -1.578125 2.96875 -1.578125 L 3.953125 -0.59375 C 4.035156 -0.519531 4.078125 -0.429688 4.078125 -0.328125 C 4.078125 -0.222656 4.03125 -0.128906 3.9375 -0.046875 C 3.84375 0.0234375 3.75 0.0625 3.65625 0.0625 C 3.53125 0.0625 3.414062 0.00390625 3.3125 -0.109375 L 1.90625 -1.546875 L 1.234375 -1.546875 L 1.234375 -0.328125 C 1.234375 -0.203125 1.191406 -0.101562 1.109375 -0.03125 C 1.023438 0.03125 0.921875 0.0625 0.796875 0.0625 C 0.660156 0.0625 0.550781 0.03125 0.46875 -0.03125 C 0.394531 -0.101562 0.359375 -0.203125 0.359375 -0.328125 Z M 2.5 -2.234375 C 2.789062 -2.234375 3.015625 -2.257812 3.171875 -2.3125 C 3.335938 -2.363281 3.453125 -2.445312 3.515625 -2.5625 C 3.585938 -2.6875 3.625 -2.851562 3.625 -3.0625 C 3.625 -3.351562 3.53125 -3.566406 3.34375 -3.703125 C 3.164062 -3.835938 2.882812 -3.90625 2.5 -3.90625 L 1.515625 -3.90625 C 1.429688 -3.90625 1.363281 -3.875 1.3125 -3.8125 C 1.257812 -3.757812 1.234375 -3.679688 1.234375 -3.578125 L 1.234375 -2.234375 Z M 2.5 -2.234375 "/></g></g><g style="fill:#3bf60d;fill-opacity:1;"><g transform="translate(71.920384, 8.987148)"><path style="stroke:none" d="M 2.265625 0.0625 C 2.140625 0.0625 2.035156 0.03125 1.953125 -0.03125 C 1.867188 -0.101562 1.828125 -0.203125 1.828125 -0.328125 L 1.828125 -3.90625 L 0.578125 -3.90625 C 0.453125 -3.90625 0.351562 -3.929688 0.28125 -3.984375 C 0.207031 -4.046875 0.171875 -4.128906 0.171875 -4.234375 C 0.171875 -4.335938 0.203125 -4.421875 0.265625 -4.484375 C 0.335938 -4.546875 0.441406 -4.578125 0.578125 -4.578125 L 3.96875 -4.578125 C 4.09375 -4.578125 4.191406 -4.546875 4.265625 -4.484375 C 4.335938 -4.421875 4.375 -4.335938 4.375 -4.234375 C 4.375 -4.128906 4.335938 -4.046875 4.265625 -3.984375 C 4.191406 -3.929688 4.09375 -3.90625 3.96875 -3.90625 L 2.703125 -3.90625 L 2.703125 -0.328125 C 2.703125 -0.210938 2.660156 -0.117188 2.578125 -0.046875 C 2.503906 0.0234375 2.398438 0.0625 2.265625 0.0625 Z M 2.265625 0.0625 "/></g></g><g style="fill:#3bf60d;fill-opacity:1;"><g transform="translate(76.454992, 8.987148)"><path style="stroke:none" d="M 2.578125 0.0625 C 2.148438 0.0625 1.75 -0.00390625 1.375 -0.140625 C 1 -0.285156 0.671875 -0.488281 0.390625 -0.75 C 0.328125 -0.820312 0.296875 -0.898438 0.296875 -0.984375 C 0.296875 -1.078125 0.34375 -1.164062 0.4375 -1.25 C 0.5 -1.320312 0.570312 -1.359375 0.65625 -1.359375 C 0.75 -1.359375 0.851562 -1.304688 0.96875 -1.203125 C 1.175781 -1.015625 1.421875 -0.867188 1.703125 -0.765625 C 1.984375 -0.671875 2.273438 -0.625 2.578125 -0.625 C 2.859375 -0.625 3.078125 -0.671875 3.234375 -0.765625 C 3.398438 -0.867188 3.484375 -1.007812 3.484375 -1.1875 C 3.484375 -1.375 3.394531 -1.523438 3.21875 -1.640625 C 3.050781 -1.753906 2.757812 -1.859375 2.34375 -1.953125 C 1.6875 -2.085938 1.207031 -2.273438 0.90625 -2.515625 C 0.601562 -2.753906 0.453125 -3.054688 0.453125 -3.421875 C 0.453125 -3.660156 0.53125 -3.867188 0.6875 -4.046875 C 0.84375 -4.234375 1.0625 -4.378906 1.34375 -4.484375 C 1.625 -4.585938 1.945312 -4.640625 2.3125 -4.640625 C 2.71875 -4.640625 3.078125 -4.570312 3.390625 -4.4375 C 3.703125 -4.300781 3.941406 -4.113281 4.109375 -3.875 C 4.171875 -3.789062 4.203125 -3.710938 4.203125 -3.640625 C 4.191406 -3.535156 4.132812 -3.441406 4.03125 -3.359375 C 3.976562 -3.328125 3.914062 -3.3125 3.84375 -3.3125 C 3.707031 -3.3125 3.59375 -3.363281 3.5 -3.46875 C 3.375 -3.613281 3.207031 -3.726562 3 -3.8125 C 2.789062 -3.90625 2.5625 -3.953125 2.3125 -3.953125 C 2 -3.953125 1.753906 -3.90625 1.578125 -3.8125 C 1.410156 -3.71875 1.328125 -3.585938 1.328125 -3.421875 C 1.328125 -3.253906 1.410156 -3.117188 1.578125 -3.015625 C 1.742188 -2.910156 2.035156 -2.804688 2.453125 -2.703125 C 2.910156 -2.597656 3.28125 -2.476562 3.5625 -2.34375 C 3.84375 -2.207031 4.046875 -2.046875 4.171875 -1.859375 C 4.296875 -1.671875 4.359375 -1.445312 4.359375 -1.1875 C 4.359375 -0.9375 4.285156 -0.710938 4.140625 -0.515625 C 3.992188 -0.328125 3.785156 -0.179688 3.515625 -0.078125 C 3.242188 0.015625 2.929688 0.0625 2.578125 0.0625 Z M 2.578125 0.0625 "/></g></g><g style="fill:#3bf60d;fill-opacity:1;"><g transform="translate(81.113564, 8.987148)"><path style="stroke:none" d=""/></g></g><g style="fill:#3bf60d;fill-opacity:1;"><g transform="translate(82.862164, 8.987148)"><path style="stroke:none" d="M 2.265625 0.0625 C 2.140625 0.0625 2.035156 0.03125 1.953125 -0.03125 C 1.867188 -0.101562 1.828125 -0.203125 1.828125 -0.328125 L 1.828125 -3.90625 L 0.578125 -3.90625 C 0.453125 -3.90625 0.351562 -3.929688 0.28125 -3.984375 C 0.207031 -4.046875 0.171875 -4.128906 0.171875 -4.234375 C 0.171875 -4.335938 0.203125 -4.421875 0.265625 -4.484375 C 0.335938 -4.546875 0.441406 -4.578125 0.578125 -4.578125 L 3.96875 -4.578125 C 4.09375 -4.578125 4.191406 -4.546875 4.265625 -4.484375 C 4.335938 -4.421875 4.375 -4.335938 4.375 -4.234375 C 4.375 -4.128906 4.335938 -4.046875 4.265625 -3.984375 C 4.191406 -3.929688 4.09375 -3.90625 3.96875 -3.90625 L 2.703125 -3.90625 L 2.703125 -0.328125 C 2.703125 -0.210938 2.660156 -0.117188 2.578125 -0.046875 C 2.503906 0.0234375 2.398438 0.0625 2.265625 0.0625 Z M 2.265625 0.0625 "/></g></g><g style="fill:#3bf60d;fill-opacity:1;"><g transform="translate(87.396772, 8.987148)"><path style="stroke:none" d="M 1.40625 0 C 1.082031 0 0.828125 -0.0820312 0.640625 -0.25 C 0.453125 -0.425781 0.359375 -0.675781 0.359375 -1 L 0.359375 -3.609375 C 0.359375 -3.910156 0.445312 -4.144531 0.625 -4.3125 C 0.800781 -4.488281 1.046875 -4.578125 1.359375 -4.578125 L 3.390625 -4.578125 C 3.523438 -4.578125 3.625 -4.546875 3.6875 -4.484375 C 3.757812 -4.421875 3.796875 -4.335938 3.796875 -4.234375 C 3.796875 -4.128906 3.757812 -4.046875 3.6875 -3.984375 C 3.613281 -3.929688 3.515625 -3.90625 3.390625 -3.90625 L 1.515625 -3.90625 C 1.429688 -3.90625 1.363281 -3.875 1.3125 -3.8125 C 1.257812 -3.757812 1.234375 -3.679688 1.234375 -3.578125 L 1.234375 -2.671875 L 2.90625 -2.671875 C 3.03125 -2.671875 3.128906 -2.640625 3.203125 -2.578125 C 3.273438 -2.523438 3.3125 -2.441406 3.3125 -2.328125 C 3.3125 -2.222656 3.273438 -2.140625 3.203125 -2.078125 C 3.128906 -2.023438 3.03125 -2 2.90625 -2 L 1.234375 -2 L 1.234375 -1 C 1.234375 -0.894531 1.257812 -0.8125 1.3125 -0.75 C 1.363281 -0.695312 1.429688 -0.671875 1.515625 -0.671875 L 3.546875 -0.671875 C 3.671875 -0.671875 3.765625 -0.640625 3.828125 -0.578125 C 3.898438 -0.523438 3.9375 -0.441406 3.9375 -0.328125 C 3.9375 -0.222656 3.898438 -0.140625 3.828125 -0.078125 C 3.765625 -0.0234375 3.671875 0 3.546875 0 Z M 1.40625 0 "/></g></g><g style="fill:#3bf60d;fill-opacity:1;"><g transform="translate(91.637769, 8.987148)"><path style="stroke:none" d="M 0.765625 0.0625 C 0.628906 0.0625 0.519531 0.0234375 0.4375 -0.046875 C 0.363281 -0.117188 0.328125 -0.210938 0.328125 -0.328125 L 0.328125 -2.625 C 0.328125 -3.25 0.507812 -3.738281 0.875 -4.09375 C 1.238281 -4.457031 1.742188 -4.640625 2.390625 -4.640625 C 2.804688 -4.640625 3.164062 -4.554688 3.46875 -4.390625 C 3.78125 -4.234375 4.019531 -4 4.1875 -3.6875 C 4.351562 -3.382812 4.4375 -3.03125 4.4375 -2.625 L 4.4375 -0.328125 C 4.4375 -0.210938 4.394531 -0.117188 4.3125 -0.046875 C 4.238281 0.0234375 4.132812 0.0625 4 0.0625 C 3.875 0.0625 3.769531 0.0234375 3.6875 -0.046875 C 3.601562 -0.117188 3.5625 -0.210938 3.5625 -0.328125 L 3.5625 -1.390625 L 1.203125 -1.390625 L 1.203125 -0.328125 C 1.203125 -0.210938 1.160156 -0.117188 1.078125 -0.046875 C 0.992188 0.0234375 0.890625 0.0625 0.765625 0.0625 Z M 3.5625 -2.078125 L 3.5625 -2.640625 C 3.5625 -3.078125 3.460938 -3.40625 3.265625 -3.625 C 3.066406 -3.84375 2.773438 -3.953125 2.390625 -3.953125 C 1.597656 -3.953125 1.203125 -3.515625 1.203125 -2.640625 L 1.203125 -2.078125 Z M 3.5625 -2.078125 "/></g></g><g style="fill:#3bf60d;fill-opacity:1;"><g transform="translate(96.400735, 8.987148)"><path style="stroke:none" d="M 0.796875 0.0625 C 0.660156 0.0625 0.550781 0.03125 0.46875 -0.03125 C 0.394531 -0.101562 0.359375 -0.203125 0.359375 -0.328125 L 0.359375 -3.015625 C 0.359375 -3.523438 0.503906 -3.921875 0.796875 -4.203125 C 1.085938 -4.492188 1.484375 -4.640625 1.984375 -4.640625 C 2.222656 -4.640625 2.453125 -4.578125 2.671875 -4.453125 C 2.890625 -4.335938 3.078125 -4.164062 3.234375 -3.9375 C 3.390625 -4.164062 3.570312 -4.335938 3.78125 -4.453125 C 4 -4.578125 4.234375 -4.640625 4.484375 -4.640625 C 4.992188 -4.640625 5.390625 -4.492188 5.671875 -4.203125 C 5.960938 -3.921875 6.109375 -3.523438 6.109375 -3.015625 L 6.109375 -0.328125 C 6.109375 -0.210938 6.066406 -0.117188 5.984375 -0.046875 C 5.898438 0.0234375 5.796875 0.0625 5.671875 0.0625 C 5.535156 0.0625 5.425781 0.03125 5.34375 -0.03125 C 5.269531 -0.101562 5.234375 -0.203125 5.234375 -0.328125 L 5.234375 -3.015625 C 5.234375 -3.347656 5.171875 -3.585938 5.046875 -3.734375 C 4.929688 -3.878906 4.734375 -3.953125 4.453125 -3.953125 C 4.203125 -3.953125 4.003906 -3.867188 3.859375 -3.703125 C 3.722656 -3.546875 3.65625 -3.316406 3.65625 -3.015625 L 3.65625 -0.328125 C 3.65625 -0.203125 3.613281 -0.101562 3.53125 -0.03125 C 3.457031 0.03125 3.359375 0.0625 3.234375 0.0625 C 3.097656 0.0625 2.992188 0.03125 2.921875 -0.03125 C 2.847656 -0.101562 2.8125 -0.203125 2.8125 -0.328125 L 2.8125 -3.015625 C 2.8125 -3.304688 2.738281 -3.535156 2.59375 -3.703125 C 2.457031 -3.867188 2.265625 -3.953125 2.015625 -3.953125 C 1.734375 -3.953125 1.53125 -3.878906 1.40625 -3.734375 C 1.289062 -3.585938 1.234375 -3.347656 1.234375 -3.015625 L 1.234375 -0.328125 C 1.234375 -0.210938 1.191406 -0.117188 1.109375 -0.046875 C 1.035156 0.0234375 0.929688 0.0625 0.796875 0.0625 Z M 0.796875 0.0625 "/></g></g></g></svg>