<svg xmlns="http://www.w3.org/2000/svg" xmlns:xlink="http://www.w3.org/1999/xlink" width="146" zoomAndPan="magnify" viewBox="0 0 109.5 30.000001" height="40" preserveAspectRatio="xMidYMid meet" version="1.2"><defs><clipPath id="3af90b10a7"><path d="M 1.523438 0 L 107.492188 0 L 107.492188 29.03125 L 1.523438 29.03125 Z M 1.523438 0 "/></clipPath><clipPath id="5e88129c3d"><path d="M 19.738281 4 L 41.441406 4 L 41.441406 25.992188 L 19.738281 25.992188 Z M 19.738281 4 "/></clipPath><clipPath id="25db2afb12"><path d="M 1.523438 3 L 23.605469 3 L 23.605469 25.992188 L 1.523438 25.992188 Z M 1.523438 3 "/></clipPath></defs><g id="5aba3c5a45"><g clip-rule="nonzero" clip-path="url(#3af90b10a7)"><path style=" stroke:none;fill-rule:nonzero;fill:#ffffff;fill-opacity:1;" d="M 1.523438 0 L 107.492188 0 L 107.492188 29.03125 L 1.523438 29.03125 Z M 1.523438 0 "/><path style=" stroke:none;fill-rule:nonzero;fill:#ffffff;fill-opacity:1;" d="M 1.523438 0 L 107.492188 0 L 107.492188 29.03125 L 1.523438 29.03125 Z M 1.523438 0 "/></g><path style=" stroke:none;fill-rule:evenodd;fill:#3bf60d;fill-opacity:1;" d="M 19.675781 23.046875 L 19.664062 23.058594 L 19.683594 23.015625 Z M 19.675781 23.046875 "/><g clip-rule="nonzero" clip-path="url(#5e88129c3d)"><path style=" stroke:none;fill-rule:evenodd;fill:#000000;fill-opacity:1;" d="M 22.898438 6.535156 L 28.546875 6.535156 C 29.289062 5.304688 30.308594 4.445312 31.546875 4.132812 C 35.1875 3.207031 39.371094 7.328125 40.890625 13.328125 C 42.410156 19.328125 40.691406 24.941406 37.050781 25.863281 C 33.890625 26.664062 30.320312 23.664062 28.441406 18.933594 L 27.753906 18.933594 C 27.519531 20 26.257812 20.8125 24.742188 20.8125 C 24.019531 20.8125 23.355469 20.628906 22.832031 20.320312 L 19.738281 22.992188 L 26.585938 10.339844 L 21.707031 11.328125 L 22.898438 6.535156 "/></g><g clip-rule="nonzero" clip-path="url(#25db2afb12)"><path style=" stroke:none;fill-rule:evenodd;fill:#3bf60d;fill-opacity:1;" d="M 14.417969 6.535156 L 18.015625 6.535156 L 23.589844 3 L 16.898438 16.363281 L 21.777344 14.90625 C 21.191406 17.089844 20.726562 18.835938 20.386719 20.152344 C 19.832031 20.5625 19.070312 20.8125 18.222656 20.8125 C 16.707031 20.8125 15.449219 20 15.210938 18.933594 L 14.527344 18.933594 C 12.644531 23.664062 9.074219 26.664062 5.914062 25.863281 C 2.277344 24.941406 0.558594 19.328125 2.078125 13.328125 C 3.597656 7.328125 7.78125 3.207031 11.421875 4.132812 C 12.660156 4.445312 13.675781 5.304688 14.417969 6.535156 "/></g><path style=" stroke:none;fill-rule:evenodd;fill:#ffffff;fill-opacity:1;" d="M 8.640625 10.6875 C 9.324219 10.6875 9.878906 11.246094 9.878906 11.925781 L 9.878906 13.566406 L 11.519531 13.566406 C 12.199219 13.566406 12.757812 14.121094 12.757812 14.804688 C 12.757812 15.484375 12.199219 16.042969 11.519531 16.042969 L 9.878906 16.042969 L 9.878906 17.679688 C 9.878906 18.363281 9.324219 18.917969 8.640625 18.917969 C 7.960938 18.917969 7.40625 18.363281 7.40625 17.679688 L 7.40625 16.042969 L 5.765625 16.042969 C 5.082031 16.042969 4.527344 15.484375 4.527344 14.804688 C 4.527344 14.121094 5.082031 13.566406 5.765625 13.566406 L 7.40625 13.566406 L 7.40625 11.925781 C 7.40625 11.246094 7.960938 10.6875 8.640625 10.6875 "/><path style=" stroke:none;fill-rule:evenodd;fill:#ffffff;fill-opacity:1;" d="M 32.957031 16.589844 L 32.957031 17.035156 C 32.945312 16.960938 32.9375 16.886719 32.9375 16.8125 C 32.9375 16.734375 32.945312 16.660156 32.957031 16.589844 Z M 32.957031 13.84375 L 32.957031 14.292969 C 32.851562 14.953125 32.277344 15.457031 31.585938 15.457031 C 30.820312 15.457031 30.195312 14.835938 30.195312 14.070312 C 30.195312 13.300781 30.820312 12.679688 31.585938 12.679688 C 32.277344 12.679688 32.851562 13.183594 32.957031 13.84375 Z M 32.957031 11.550781 C 32.945312 11.476562 32.9375 11.402344 32.9375 11.324219 C 32.9375 11.25 32.945312 11.175781 32.957031 11.101562 Z M 32.957031 14.292969 L 32.957031 13.84375 C 32.96875 13.917969 32.976562 13.992188 32.976562 14.070312 C 32.976562 14.144531 32.96875 14.21875 32.957031 14.292969 Z M 35.699219 16.589844 L 35.699219 17.035156 C 35.59375 17.695312 35.019531 18.199219 34.328125 18.199219 C 33.636719 18.199219 33.0625 17.695312 32.957031 17.035156 L 32.957031 16.589844 C 33.0625 15.925781 33.636719 15.421875 34.328125 15.421875 C 35.019531 15.421875 35.59375 15.925781 35.699219 16.589844 Z M 35.699219 13.847656 L 35.699219 14.289062 C 35.6875 14.21875 35.683594 14.144531 35.683594 14.070312 C 35.683594 13.992188 35.6875 13.917969 35.699219 13.847656 Z M 34.328125 9.9375 C 35.019531 9.9375 35.59375 10.441406 35.699219 11.105469 L 35.699219 11.546875 C 35.59375 12.210938 35.019531 12.714844 34.328125 12.714844 C 33.636719 12.714844 33.0625 12.210938 32.957031 11.550781 L 32.957031 11.101562 C 33.0625 10.441406 33.636719 9.9375 34.328125 9.9375 Z M 35.699219 14.289062 L 35.699219 13.847656 C 35.804688 13.183594 36.378906 12.679688 37.070312 12.679688 C 37.839844 12.679688 38.460938 13.300781 38.460938 14.070312 C 38.460938 14.835938 37.839844 15.457031 37.070312 15.457031 C 36.378906 15.457031 35.804688 14.953125 35.699219 14.289062 Z M 35.699219 17.035156 L 35.699219 16.589844 C 35.710938 16.660156 35.71875 16.734375 35.71875 16.8125 C 35.71875 16.886719 35.710938 16.960938 35.699219 17.035156 Z M 35.699219 11.105469 C 35.710938 11.175781 35.71875 11.25 35.71875 11.324219 C 35.71875 11.402344 35.710938 11.476562 35.699219 11.546875 L 35.699219 11.105469 "/><g style="fill:#000000;fill-opacity:1;"><g transform="translate(44.239055, 23.497152)"><path style="stroke:none" d="M 3.546875 0 C 2.984375 0 2.476562 -0.125 2.03125 -0.375 C 1.59375 -0.632812 1.242188 -0.988281 0.984375 -1.4375 C 0.734375 -1.882812 0.609375 -2.390625 0.609375 -2.953125 L 0.609375 -7.578125 C 0.609375 -8.148438 0.734375 -8.65625 0.984375 -9.09375 C 1.242188 -9.539062 1.59375 -9.890625 2.03125 -10.140625 C 2.476562 -10.398438 2.984375 -10.53125 3.546875 -10.53125 L 8.015625 -10.53125 C 8.191406 -10.53125 8.335938 -10.472656 8.453125 -10.359375 C 8.566406 -10.242188 8.625 -10.097656 8.625 -9.921875 L 8.625 -8.171875 C 8.625 -8.003906 8.566406 -7.859375 8.453125 -7.734375 C 8.335938 -7.617188 8.191406 -7.5625 8.015625 -7.5625 L 4.609375 -7.5625 C 4.441406 -7.5625 4.300781 -7.503906 4.1875 -7.390625 C 4.070312 -7.273438 4.015625 -7.128906 4.015625 -6.953125 L 4.015625 -3.5625 C 4.015625 -3.394531 4.070312 -3.253906 4.1875 -3.140625 C 4.300781 -3.023438 4.441406 -2.96875 4.609375 -2.96875 C 4.773438 -2.96875 4.914062 -3.023438 5.03125 -3.140625 C 5.144531 -3.253906 5.203125 -3.394531 5.203125 -3.5625 L 5.203125 -5.703125 C 5.203125 -5.867188 5.265625 -6.007812 5.390625 -6.125 C 5.515625 -6.238281 5.660156 -6.296875 5.828125 -6.296875 L 8.03125 -6.296875 C 8.195312 -6.296875 8.335938 -6.238281 8.453125 -6.125 C 8.566406 -6.007812 8.625 -5.867188 8.625 -5.703125 L 8.625 -0.625 C 8.625 -0.445312 8.5625 -0.296875 8.4375 -0.171875 C 8.320312 -0.0546875 8.179688 0 8.015625 0 Z M 3.546875 0 "/></g></g><g style="fill:#000000;fill-opacity:1;"><g transform="translate(53.462882, 23.497152)"><path style="stroke:none" d="M 1.203125 0 C 1.035156 0 0.894531 -0.0546875 0.78125 -0.171875 C 0.664062 -0.296875 0.609375 -0.441406 0.609375 -0.609375 L 0.609375 -2.109375 C 0.609375 -2.285156 0.664062 -2.425781 0.78125 -2.53125 C 0.894531 -2.644531 1.035156 -2.703125 1.203125 -2.703125 L 6.578125 -2.703125 C 6.753906 -2.703125 6.898438 -2.757812 7.015625 -2.875 C 7.128906 -2.988281 7.1875 -3.128906 7.1875 -3.296875 C 7.1875 -3.460938 7.128906 -3.601562 7.015625 -3.71875 C 6.898438 -3.84375 6.753906 -3.90625 6.578125 -3.90625 L 3.484375 -3.90625 C 2.929688 -3.90625 2.4375 -4.03125 2 -4.28125 C 1.570312 -4.53125 1.234375 -4.867188 0.984375 -5.296875 C 0.734375 -5.734375 0.609375 -6.226562 0.609375 -6.78125 L 0.609375 -7.640625 C 0.609375 -8.203125 0.734375 -8.695312 0.984375 -9.125 C 1.234375 -9.5625 1.570312 -9.90625 2 -10.15625 C 2.4375 -10.40625 2.929688 -10.53125 3.484375 -10.53125 L 9.984375 -10.53125 C 10.160156 -10.53125 10.304688 -10.472656 10.421875 -10.359375 C 10.535156 -10.242188 10.59375 -10.097656 10.59375 -9.921875 L 10.59375 -8.4375 C 10.59375 -8.269531 10.535156 -8.125 10.421875 -8 C 10.304688 -7.882812 10.160156 -7.828125 9.984375 -7.828125 L 4.609375 -7.828125 C 4.441406 -7.828125 4.300781 -7.769531 4.1875 -7.65625 C 4.070312 -7.539062 4.015625 -7.394531 4.015625 -7.21875 C 4.015625 -7.050781 4.070312 -6.910156 4.1875 -6.796875 C 4.300781 -6.679688 4.441406 -6.625 4.609375 -6.625 L 7.703125 -6.625 C 8.265625 -6.625 8.757812 -6.5 9.1875 -6.25 C 9.625 -6 9.96875 -5.660156 10.21875 -5.234375 C 10.46875 -4.804688 10.59375 -4.3125 10.59375 -3.75 L 10.59375 -2.890625 C 10.59375 -2.335938 10.46875 -1.84375 10.21875 -1.40625 C 9.96875 -0.96875 9.625 -0.625 9.1875 -0.375 C 8.757812 -0.125 8.265625 0 7.703125 0 Z M 1.203125 0 "/></g></g><g style="fill:#000000;fill-opacity:1;"><g transform="translate(64.660423, 23.497152)"><path style="stroke:none" d="M 1.203125 0 C 1.035156 0 0.894531 -0.0546875 0.78125 -0.171875 C 0.664062 -0.296875 0.609375 -0.441406 0.609375 -0.609375 L 0.609375 -9.921875 C 0.609375 -10.097656 0.664062 -10.242188 0.78125 -10.359375 C 0.894531 -10.472656 1.035156 -10.53125 1.203125 -10.53125 L 7.703125 -10.53125 C 8.265625 -10.53125 8.757812 -10.40625 9.1875 -10.15625 C 9.625 -9.90625 9.96875 -9.5625 10.21875 -9.125 C 10.46875 -8.695312 10.59375 -8.203125 10.59375 -7.640625 L 10.59375 -6.78125 C 10.59375 -6.226562 10.46875 -5.734375 10.21875 -5.296875 C 9.96875 -4.867188 9.625 -4.53125 9.1875 -4.28125 C 8.757812 -4.03125 8.265625 -3.90625 7.703125 -3.90625 L 4.625 -3.90625 C 4.457031 -3.90625 4.3125 -3.84375 4.1875 -3.71875 C 4.070312 -3.601562 4.015625 -3.460938 4.015625 -3.296875 L 4.015625 -0.609375 C 4.015625 -0.441406 3.957031 -0.296875 3.84375 -0.171875 C 3.726562 -0.0546875 3.582031 0 3.40625 0 Z M 4.609375 -6.625 L 6.578125 -6.625 C 6.753906 -6.625 6.898438 -6.679688 7.015625 -6.796875 C 7.128906 -6.910156 7.1875 -7.050781 7.1875 -7.21875 C 7.1875 -7.394531 7.128906 -7.539062 7.015625 -7.65625 C 6.898438 -7.769531 6.753906 -7.828125 6.578125 -7.828125 L 4.609375 -7.828125 C 4.441406 -7.828125 4.300781 -7.769531 4.1875 -7.65625 C 4.070312 -7.539062 4.015625 -7.394531 4.015625 -7.21875 C 4.015625 -7.050781 4.070312 -6.910156 4.1875 -6.796875 C 4.300781 -6.679688 4.441406 -6.625 4.609375 -6.625 Z M 4.609375 -6.625 "/></g></g><g style="fill:#000000;fill-opacity:1;"><g transform="translate(75.857965, 23.497152)"><path style="stroke:none" d="M 1.203125 0 C 1.035156 0 0.894531 -0.0546875 0.78125 -0.171875 C 0.664062 -0.296875 0.609375 -0.441406 0.609375 -0.609375 L 0.609375 -7.578125 C 0.609375 -8.148438 0.734375 -8.65625 0.984375 -9.09375 C 1.242188 -9.539062 1.59375 -9.890625 2.03125 -10.140625 C 2.476562 -10.398438 2.984375 -10.53125 3.546875 -10.53125 L 5.671875 -10.53125 C 6.242188 -10.53125 6.75 -10.398438 7.1875 -10.140625 C 7.632812 -9.890625 7.984375 -9.539062 8.234375 -9.09375 C 8.492188 -8.65625 8.625 -8.148438 8.625 -7.578125 L 8.625 -0.609375 C 8.625 -0.441406 8.566406 -0.296875 8.453125 -0.171875 C 8.335938 -0.0546875 8.191406 0 8.015625 0 L 5.8125 0 C 5.644531 0 5.5 -0.0546875 5.375 -0.171875 C 5.257812 -0.296875 5.203125 -0.441406 5.203125 -0.609375 L 5.203125 -2.296875 C 5.203125 -2.460938 5.144531 -2.601562 5.03125 -2.71875 C 4.925781 -2.84375 4.785156 -2.90625 4.609375 -2.90625 C 4.441406 -2.90625 4.300781 -2.847656 4.1875 -2.734375 C 4.070312 -2.617188 4.015625 -2.472656 4.015625 -2.296875 L 4.015625 -0.609375 C 4.015625 -0.441406 3.957031 -0.296875 3.84375 -0.171875 C 3.726562 -0.0546875 3.582031 0 3.40625 0 Z M 4.609375 -5.359375 C 4.785156 -5.359375 4.925781 -5.414062 5.03125 -5.53125 C 5.144531 -5.644531 5.203125 -5.785156 5.203125 -5.953125 L 5.203125 -7.15625 C 5.203125 -7.332031 5.144531 -7.476562 5.03125 -7.59375 C 4.925781 -7.707031 4.785156 -7.765625 4.609375 -7.765625 C 4.441406 -7.765625 4.300781 -7.707031 4.1875 -7.59375 C 4.070312 -7.476562 4.015625 -7.332031 4.015625 -7.15625 L 4.015625 -5.953125 C 4.015625 -5.785156 4.070312 -5.644531 4.1875 -5.53125 C 4.300781 -5.414062 4.441406 -5.359375 4.609375 -5.359375 Z M 4.609375 -5.359375 "/></g></g><g style="fill:#000000;fill-opacity:1;"><g transform="translate(85.081791, 23.497152)"><path style="stroke:none" d="M 1.203125 0 C 1.035156 0 0.894531 -0.0546875 0.78125 -0.171875 C 0.664062 -0.296875 0.609375 -0.441406 0.609375 -0.609375 L 0.609375 -9.921875 C 0.609375 -10.097656 0.664062 -10.242188 0.78125 -10.359375 C 0.894531 -10.472656 1.035156 -10.53125 1.203125 -10.53125 L 8.1875 -10.53125 C 8.644531 -10.53125 9.054688 -10.425781 9.421875 -10.21875 C 9.785156 -10.007812 10.070312 -9.722656 10.28125 -9.359375 C 10.488281 -8.992188 10.59375 -8.582031 10.59375 -8.125 L 10.59375 -6.984375 C 10.59375 -6.660156 10.484375 -6.394531 10.265625 -6.1875 C 10.054688 -5.976562 9.789062 -5.875 9.46875 -5.875 L 9.390625 -5.875 C 9.222656 -5.875 9.082031 -5.816406 8.96875 -5.703125 C 8.851562 -5.585938 8.796875 -5.441406 8.796875 -5.265625 C 8.796875 -5.097656 8.851562 -4.957031 8.96875 -4.84375 C 9.082031 -4.726562 9.222656 -4.671875 9.390625 -4.671875 L 9.515625 -4.671875 C 9.828125 -4.671875 10.082031 -4.566406 10.28125 -4.359375 C 10.488281 -4.160156 10.59375 -3.90625 10.59375 -3.59375 L 10.59375 -0.625 C 10.59375 -0.457031 10.535156 -0.3125 10.421875 -0.1875 C 10.304688 -0.0625 10.160156 0 9.984375 0 L 7.78125 0 C 7.613281 0 7.472656 -0.0546875 7.359375 -0.171875 C 7.242188 -0.296875 7.1875 -0.441406 7.1875 -0.609375 L 7.1875 -3.34375 C 7.1875 -3.507812 7.128906 -3.648438 7.015625 -3.765625 C 6.898438 -3.878906 6.753906 -3.9375 6.578125 -3.9375 L 4.609375 -3.9375 C 4.441406 -3.9375 4.300781 -3.878906 4.1875 -3.765625 C 4.070312 -3.648438 4.015625 -3.507812 4.015625 -3.34375 L 4.015625 -0.625 C 4.015625 -0.457031 3.957031 -0.3125 3.84375 -0.1875 C 3.726562 -0.0625 3.582031 0 3.40625 0 Z M 4.609375 -6.609375 L 6.578125 -6.609375 C 6.753906 -6.609375 6.898438 -6.664062 7.015625 -6.78125 C 7.128906 -6.894531 7.1875 -7.035156 7.1875 -7.203125 C 7.1875 -7.367188 7.128906 -7.503906 7.015625 -7.609375 C 6.898438 -7.722656 6.753906 -7.78125 6.578125 -7.78125 L 4.609375 -7.78125 C 4.441406 -7.78125 4.300781 -7.722656 4.1875 -7.609375 C 4.070312 -7.503906 4.015625 -7.367188 4.015625 -7.203125 C 4.015625 -7.035156 4.070312 -6.894531 4.1875 -6.78125 C 4.300781 -6.664062 4.441406 -6.609375 4.609375 -6.609375 Z M 4.609375 -6.609375 "/></g></g><g style="fill:#000000;fill-opacity:1;"><g transform="translate(96.279333, 23.497152)"><path style="stroke:none" d="M 1.203125 0 C 1.035156 0 0.894531 -0.0546875 0.78125 -0.171875 C 0.664062 -0.296875 0.609375 -0.441406 0.609375 -0.609375 L 0.609375 -9.921875 C 0.609375 -10.097656 0.664062 -10.242188 0.78125 -10.359375 C 0.894531 -10.472656 1.035156 -10.53125 1.203125 -10.53125 L 3.40625 -10.53125 C 3.582031 -10.53125 3.726562 -10.472656 3.84375 -10.359375 C 3.957031 -10.242188 4.015625 -10.097656 4.015625 -9.921875 L 4.015625 -7.375 C 4.015625 -7.207031 4.070312 -7.066406 4.1875 -6.953125 C 4.300781 -6.835938 4.441406 -6.78125 4.609375 -6.78125 C 4.785156 -6.78125 4.925781 -6.835938 5.03125 -6.953125 C 5.144531 -7.066406 5.203125 -7.207031 5.203125 -7.375 L 5.203125 -9.921875 C 5.203125 -10.097656 5.257812 -10.242188 5.375 -10.359375 C 5.5 -10.472656 5.644531 -10.53125 5.8125 -10.53125 L 8.015625 -10.53125 C 8.191406 -10.53125 8.335938 -10.472656 8.453125 -10.359375 C 8.566406 -10.242188 8.625 -10.097656 8.625 -9.921875 L 8.625 -8.453125 C 8.625 -8.234375 8.570312 -8.035156 8.46875 -7.859375 L 7.546875 -5.609375 C 7.441406 -5.390625 7.441406 -5.164062 7.546875 -4.9375 L 8.46875 -2.6875 C 8.570312 -2.488281 8.625 -2.28125 8.625 -2.0625 L 8.625 -0.609375 C 8.625 -0.441406 8.566406 -0.296875 8.453125 -0.171875 C 8.335938 -0.0546875 8.191406 0 8.015625 0 L 5.8125 0 C 5.644531 0 5.5 -0.0546875 5.375 -0.171875 C 5.257812 -0.296875 5.203125 -0.441406 5.203125 -0.609375 L 5.203125 -3.140625 C 5.203125 -3.304688 5.144531 -3.445312 5.03125 -3.5625 C 4.925781 -3.6875 4.785156 -3.75 4.609375 -3.75 C 4.441406 -3.75 4.300781 -3.691406 4.1875 -3.578125 C 4.070312 -3.460938 4.015625 -3.316406 4.015625 -3.140625 L 4.015625 -0.609375 C 4.015625 -0.441406 3.957031 -0.296875 3.84375 -0.171875 C 3.726562 -0.0546875 3.582031 0 3.40625 0 Z M 1.203125 0 "/></g></g><g style="fill:#2dc208;fill-opacity:1;"><g transform="translate(44.660549, 8.987148)"><path style="stroke:none" d="M 1.40625 0 C 1.082031 0 0.828125 -0.0820312 0.640625 -0.25 C 0.453125 -0.425781 0.359375 -0.675781 0.359375 -1 L 0.359375 -3.609375 C 0.359375 -3.910156 0.445312 -4.144531 0.625 -4.3125 C 0.800781 -4.488281 1.046875 -4.578125 1.359375 -4.578125 L 3.390625 -4.578125 C 3.523438 -4.578125 3.625 -4.546875 3.6875 -4.484375 C 3.757812 -4.421875 3.796875 -4.335938 3.796875 -4.234375 C 3.796875 -4.128906 3.757812 -4.046875 3.6875 -3.984375 C 3.613281 -3.929688 3.515625 -3.90625 3.390625 -3.90625 L 1.515625 -3.90625 C 1.429688 -3.90625 1.363281 -3.875 1.3125 -3.8125 C 1.257812 -3.757812 1.234375 -3.679688 1.234375 -3.578125 L 1.234375 -2.671875 L 2.90625 -2.671875 C 3.03125 -2.671875 3.128906 -2.640625 3.203125 -2.578125 C 3.273438 -2.523438 3.3125 -2.441406 3.3125 -2.328125 C 3.3125 -2.222656 3.273438 -2.140625 3.203125 -2.078125 C 3.128906 -2.023438 3.03125 -2 2.90625 -2 L 1.234375 -2 L 1.234375 -1 C 1.234375 -0.894531 1.257812 -0.8125 1.3125 -0.75 C 1.363281 -0.695312 1.429688 -0.671875 1.515625 -0.671875 L 3.546875 -0.671875 C 3.671875 -0.671875 3.765625 -0.640625 3.828125 -0.578125 C 3.898438 -0.523438 3.9375 -0.441406 3.9375 -0.328125 C 3.9375 -0.222656 3.898438 -0.140625 3.828125 -0.078125 C 3.765625 -0.0234375 3.671875 0 3.546875 0 Z M 1.40625 0 "/></g></g><g style="fill:#2dc208;fill-opacity:1;"><g transform="translate(48.901546, 8.987148)"><path style="stroke:none" d="M 0.671875 -1.25 C 0.546875 -1.25 0.445312 -1.28125 0.375 -1.34375 C 0.300781 -1.40625 0.265625 -1.488281 0.265625 -1.59375 C 0.265625 -1.695312 0.300781 -1.773438 0.375 -1.828125 C 0.445312 -1.890625 0.546875 -1.921875 0.671875 -1.921875 L 2.625 -1.921875 C 2.757812 -1.921875 2.863281 -1.890625 2.9375 -1.828125 C 3.007812 -1.773438 3.046875 -1.695312 3.046875 -1.59375 C 3.046875 -1.488281 3.007812 -1.40625 2.9375 -1.34375 C 2.863281 -1.28125 2.757812 -1.25 2.625 -1.25 Z M 0.671875 -1.25 "/></g></g><g style="fill:#2dc208;fill-opacity:1;"><g transform="translate(52.202999, 8.987148)"><path style="stroke:none" d="M 2.578125 0.0625 C 2.148438 0.0625 1.75 -0.00390625 1.375 -0.140625 C 1 -0.285156 0.671875 -0.488281 0.390625 -0.75 C 0.328125 -0.820312 0.296875 -0.898438 0.296875 -0.984375 C 0.296875 -1.078125 0.34375 -1.164062 0.4375 -1.25 C 0.5 -1.320312 0.570312 -1.359375 0.65625 -1.359375 C 0.75 -1.359375 0.851562 -1.304688 0.96875 -1.203125 C 1.175781 -1.015625 1.421875 -0.867188 1.703125 -0.765625 C 1.984375 -0.671875 2.273438 -0.625 2.578125 -0.625 C 2.859375 -0.625 3.078125 -0.671875 3.234375 -0.765625 C 3.398438 -0.867188 3.484375 -1.007812 3.484375 -1.1875 C 3.484375 -1.375 3.394531 -1.523438 3.21875 -1.640625 C 3.050781 -1.753906 2.757812 -1.859375 2.34375 -1.953125 C 1.6875 -2.085938 1.207031 -2.273438 0.90625 -2.515625 C 0.601562 -2.753906 0.453125 -3.054688 0.453125 -3.421875 C 0.453125 -3.660156 0.53125 -3.867188 0.6875 -4.046875 C 0.84375 -4.234375 1.0625 -4.378906 1.34375 -4.484375 C 1.625 -4.585938 1.945312 -4.640625 2.3125 -4.640625 C 2.71875 -4.640625 3.078125 -4.570312 3.390625 -4.4375 C 3.703125 -4.300781 3.941406 -4.113281 4.109375 -3.875 C 4.171875 -3.789062 4.203125 -3.710938 4.203125 -3.640625 C 4.191406 -3.535156 4.132812 -3.441406 4.03125 -3.359375 C 3.976562 -3.328125 3.914062 -3.3125 3.84375 -3.3125 C 3.707031 -3.3125 3.59375 -3.363281 3.5 -3.46875 C 3.375 -3.613281 3.207031 -3.726562 3 -3.8125 C 2.789062 -3.90625 2.5625 -3.953125 2.3125 -3.953125 C 2 -3.953125 1.753906 -3.90625 1.578125 -3.8125 C 1.410156 -3.71875 1.328125 -3.585938 1.328125 -3.421875 C 1.328125 -3.253906 1.410156 -3.117188 1.578125 -3.015625 C 1.742188 -2.910156 2.035156 -2.804688 2.453125 -2.703125 C 2.910156 -2.597656 3.28125 -2.476562 3.5625 -2.34375 C 3.84375 -2.207031 4.046875 -2.046875 4.171875 -1.859375 C 4.296875 -1.671875 4.359375 -1.445312 4.359375 -1.1875 C 4.359375 -0.9375 4.285156 -0.710938 4.140625 -0.515625 C 3.992188 -0.328125 3.785156 -0.179688 3.515625 -0.078125 C 3.242188 0.015625 2.929688 0.0625 2.578125 0.0625 Z M 2.578125 0.0625 "/></g></g><g style="fill:#2dc208;fill-opacity:1;"><g transform="translate(56.861571, 8.987148)"><path style="stroke:none" d="M 0.796875 0.0625 C 0.660156 0.0625 0.550781 0.03125 0.46875 -0.03125 C 0.394531 -0.101562 0.359375 -0.203125 0.359375 -0.328125 L 0.359375 -3.609375 C 0.359375 -3.910156 0.445312 -4.144531 0.625 -4.3125 C 0.800781 -4.488281 1.046875 -4.578125 1.359375 -4.578125 L 2.46875 -4.578125 C 3.132812 -4.578125 3.640625 -4.4375 3.984375 -4.15625 C 4.328125 -3.882812 4.5 -3.484375 4.5 -2.953125 C 4.5 -2.421875 4.328125 -2.015625 3.984375 -1.734375 C 3.648438 -1.460938 3.160156 -1.328125 2.515625 -1.328125 L 1.234375 -1.328125 L 1.234375 -0.328125 C 1.234375 -0.210938 1.191406 -0.117188 1.109375 -0.046875 C 1.035156 0.0234375 0.929688 0.0625 0.796875 0.0625 Z M 2.5 -2 C 3.25 -2 3.625 -2.316406 3.625 -2.953125 C 3.625 -3.585938 3.25 -3.90625 2.5 -3.90625 L 1.515625 -3.90625 C 1.429688 -3.90625 1.363281 -3.875 1.3125 -3.8125 C 1.257812 -3.757812 1.234375 -3.679688 1.234375 -3.578125 L 1.234375 -2 Z M 2.5 -2 "/></g></g><g style="fill:#2dc208;fill-opacity:1;"><g transform="translate(61.65064, 8.987148)"><path style="stroke:none" d="M 2.75 0.0625 C 2.238281 0.0625 1.796875 -0.0351562 1.421875 -0.234375 C 1.054688 -0.429688 0.773438 -0.707031 0.578125 -1.0625 C 0.390625 -1.414062 0.296875 -1.820312 0.296875 -2.28125 C 0.296875 -2.75 0.390625 -3.160156 0.578125 -3.515625 C 0.773438 -3.867188 1.054688 -4.144531 1.421875 -4.34375 C 1.796875 -4.539062 2.238281 -4.640625 2.75 -4.640625 C 3.25 -4.640625 3.679688 -4.539062 4.046875 -4.34375 C 4.421875 -4.144531 4.703125 -3.867188 4.890625 -3.515625 C 5.085938 -3.160156 5.1875 -2.75 5.1875 -2.28125 C 5.1875 -1.820312 5.085938 -1.414062 4.890625 -1.0625 C 4.703125 -0.707031 4.421875 -0.429688 4.046875 -0.234375 C 3.679688 -0.0351562 3.25 0.0625 2.75 0.0625 Z M 2.75 -0.625 C 3.238281 -0.625 3.617188 -0.769531 3.890625 -1.0625 C 4.171875 -1.363281 4.3125 -1.769531 4.3125 -2.28125 C 4.3125 -2.800781 4.164062 -3.207031 3.875 -3.5 C 3.59375 -3.800781 3.191406 -3.953125 2.671875 -3.953125 C 2.203125 -3.953125 1.832031 -3.800781 1.5625 -3.5 C 1.300781 -3.195312 1.171875 -2.789062 1.171875 -2.28125 C 1.171875 -1.769531 1.304688 -1.363281 1.578125 -1.0625 C 1.859375 -0.769531 2.25 -0.625 2.75 -0.625 Z M 2.75 -0.625 "/></g></g><g style="fill:#2dc208;fill-opacity:1;"><g transform="translate(67.131316, 8.987148)"><path style="stroke:none" d="M 0.359375 -3.609375 C 0.359375 -3.910156 0.445312 -4.144531 0.625 -4.3125 C 0.800781 -4.488281 1.046875 -4.578125 1.359375 -4.578125 L 2.53125 -4.578125 C 3.175781 -4.578125 3.664062 -4.445312 4 -4.1875 C 4.332031 -3.9375 4.5 -3.5625 4.5 -3.0625 C 4.5 -2.59375 4.359375 -2.226562 4.078125 -1.96875 C 3.796875 -1.707031 3.425781 -1.578125 2.96875 -1.578125 L 3.953125 -0.59375 C 4.035156 -0.519531 4.078125 -0.429688 4.078125 -0.328125 C 4.078125 -0.222656 4.03125 -0.128906 3.9375 -0.046875 C 3.84375 0.0234375 3.75 0.0625 3.65625 0.0625 C 3.53125 0.0625 3.414062 0.00390625 3.3125 -0.109375 L 1.90625 -1.546875 L 1.234375 -1.546875 L 1.234375 -0.328125 C 1.234375 -0.203125 1.191406 -0.101562 1.109375 -0.03125 C 1.023438 0.03125 0.921875 0.0625 0.796875 0.0625 C 0.660156 0.0625 0.550781 0.03125 0.46875 -0.03125 C 0.394531 -0.101562 0.359375 -0.203125 0.359375 -0.328125 Z M 2.5 -2.234375 C 2.789062 -2.234375 3.015625 -2.257812 3.171875 -2.3125 C 3.335938 -2.363281 3.453125 -2.445312 3.515625 -2.5625 C 3.585938 -2.6875 3.625 -2.851562 3.625 -3.0625 C 3.625 -3.351562 3.53125 -3.566406 3.34375 -3.703125 C 3.164062 -3.835938 2.882812 -3.90625 2.5 -3.90625 L 1.515625 -3.90625 C 1.429688 -3.90625 1.363281 -3.875 1.3125 -3.8125 C 1.257812 -3.757812 1.234375 -3.679688 1.234375 -3.578125 L 1.234375 -2.234375 Z M 2.5 -2.234375 "/></g></g><g style="fill:#2dc208;fill-opacity:1;"><g transform="translate(71.920384, 8.987148)"><path style="stroke:none" d="M 2.265625 0.0625 C 2.140625 0.0625 2.035156 0.03125 1.953125 -0.03125 C 1.867188 -0.101562 1.828125 -0.203125 1.828125 -0.328125 L 1.828125 -3.90625 L 0.578125 -3.90625 C 0.453125 -3.90625 0.351562 -3.929688 0.28125 -3.984375 C 0.207031 -4.046875 0.171875 -4.128906 0.171875 -4.234375 C 0.171875 -4.335938 0.203125 -4.421875 0.265625 -4.484375 C 0.335938 -4.546875 0.441406 -4.578125 0.578125 -4.578125 L 3.96875 -4.578125 C 4.09375 -4.578125 4.191406 -4.546875 4.265625 -4.484375 C 4.335938 -4.421875 4.375 -4.335938 4.375 -4.234375 C 4.375 -4.128906 4.335938 -4.046875 4.265625 -3.984375 C 4.191406 -3.929688 4.09375 -3.90625 3.96875 -3.90625 L 2.703125 -3.90625 L 2.703125 -0.328125 C 2.703125 -0.210938 2.660156 -0.117188 2.578125 -0.046875 C 2.503906 0.0234375 2.398438 0.0625 2.265625 0.0625 Z M 2.265625 0.0625 "/></g></g><g style="fill:#2dc208;fill-opacity:1;"><g transform="translate(76.454992, 8.987148)"><path style="stroke:none" d="M 2.578125 0.0625 C 2.148438 0.0625 1.75 -0.00390625 1.375 -0.140625 C 1 -0.285156 0.671875 -0.488281 0.390625 -0.75 C 0.328125 -0.820312 0.296875 -0.898438 0.296875 -0.984375 C 0.296875 -1.078125 0.34375 -1.164062 0.4375 -1.25 C 0.5 -1.320312 0.570312 -1.359375 0.65625 -1.359375 C 0.75 -1.359375 0.851562 -1.304688 0.96875 -1.203125 C 1.175781 -1.015625 1.421875 -0.867188 1.703125 -0.765625 C 1.984375 -0.671875 2.273438 -0.625 2.578125 -0.625 C 2.859375 -0.625 3.078125 -0.671875 3.234375 -0.765625 C 3.398438 -0.867188 3.484375 -1.007812 3.484375 -1.1875 C 3.484375 -1.375 3.394531 -1.523438 3.21875 -1.640625 C 3.050781 -1.753906 2.757812 -1.859375 2.34375 -1.953125 C 1.6875 -2.085938 1.207031 -2.273438 0.90625 -2.515625 C 0.601562 -2.753906 0.453125 -3.054688 0.453125 -3.421875 C 0.453125 -3.660156 0.53125 -3.867188 0.6875 -4.046875 C 0.84375 -4.234375 1.0625 -4.378906 1.34375 -4.484375 C 1.625 -4.585938 1.945312 -4.640625 2.3125 -4.640625 C 2.71875 -4.640625 3.078125 -4.570312 3.390625 -4.4375 C 3.703125 -4.300781 3.941406 -4.113281 4.109375 -3.875 C 4.171875 -3.789062 4.203125 -3.710938 4.203125 -3.640625 C 4.191406 -3.535156 4.132812 -3.441406 4.03125 -3.359375 C 3.976562 -3.328125 3.914062 -3.3125 3.84375 -3.3125 C 3.707031 -3.3125 3.59375 -3.363281 3.5 -3.46875 C 3.375 -3.613281 3.207031 -3.726562 3 -3.8125 C 2.789062 -3.90625 2.5625 -3.953125 2.3125 -3.953125 C 2 -3.953125 1.753906 -3.90625 1.578125 -3.8125 C 1.410156 -3.71875 1.328125 -3.585938 1.328125 -3.421875 C 1.328125 -3.253906 1.410156 -3.117188 1.578125 -3.015625 C 1.742188 -2.910156 2.035156 -2.804688 2.453125 -2.703125 C 2.910156 -2.597656 3.28125 -2.476562 3.5625 -2.34375 C 3.84375 -2.207031 4.046875 -2.046875 4.171875 -1.859375 C 4.296875 -1.671875 4.359375 -1.445312 4.359375 -1.1875 C 4.359375 -0.9375 4.285156 -0.710938 4.140625 -0.515625 C 3.992188 -0.328125 3.785156 -0.179688 3.515625 -0.078125 C 3.242188 0.015625 2.929688 0.0625 2.578125 0.0625 Z M 2.578125 0.0625 "/></g></g><g style="fill:#2dc208;fill-opacity:1;"><g transform="translate(81.113564, 8.987148)"><path style="stroke:none" d=""/></g></g><g style="fill:#2dc208;fill-opacity:1;"><g transform="translate(82.862164, 8.987148)"><path style="stroke:none" d="M 2.265625 0.0625 C 2.140625 0.0625 2.035156 0.03125 1.953125 -0.03125 C 1.867188 -0.101562 1.828125 -0.203125 1.828125 -0.328125 L 1.828125 -3.90625 L 0.578125 -3.90625 C 0.453125 -3.90625 0.351562 -3.929688 0.28125 -3.984375 C 0.207031 -4.046875 0.171875 -4.128906 0.171875 -4.234375 C 0.171875 -4.335938 0.203125 -4.421875 0.265625 -4.484375 C 0.335938 -4.546875 0.441406 -4.578125 0.578125 -4.578125 L 3.96875 -4.578125 C 4.09375 -4.578125 4.191406 -4.546875 4.265625 -4.484375 C 4.335938 -4.421875 4.375 -4.335938 4.375 -4.234375 C 4.375 -4.128906 4.335938 -4.046875 4.265625 -3.984375 C 4.191406 -3.929688 4.09375 -3.90625 3.96875 -3.90625 L 2.703125 -3.90625 L 2.703125 -0.328125 C 2.703125 -0.210938 2.660156 -0.117188 2.578125 -0.046875 C 2.503906 0.0234375 2.398438 0.0625 2.265625 0.0625 Z M 2.265625 0.0625 "/></g></g><g style="fill:#2dc208;fill-opacity:1;"><g transform="translate(87.396772, 8.987148)"><path style="stroke:none" d="M 1.40625 0 C 1.082031 0 0.828125 -0.0820312 0.640625 -0.25 C 0.453125 -0.425781 0.359375 -0.675781 0.359375 -1 L 0.359375 -3.609375 C 0.359375 -3.910156 0.445312 -4.144531 0.625 -4.3125 C 0.800781 -4.488281 1.046875 -4.578125 1.359375 -4.578125 L 3.390625 -4.578125 C 3.523438 -4.578125 3.625 -4.546875 3.6875 -4.484375 C 3.757812 -4.421875 3.796875 -4.335938 3.796875 -4.234375 C 3.796875 -4.128906 3.757812 -4.046875 3.6875 -3.984375 C 3.613281 -3.929688 3.515625 -3.90625 3.390625 -3.90625 L 1.515625 -3.90625 C 1.429688 -3.90625 1.363281 -3.875 1.3125 -3.8125 C 1.257812 -3.757812 1.234375 -3.679688 1.234375 -3.578125 L 1.234375 -2.671875 L 2.90625 -2.671875 C 3.03125 -2.671875 3.128906 -2.640625 3.203125 -2.578125 C 3.273438 -2.523438 3.3125 -2.441406 3.3125 -2.328125 C 3.3125 -2.222656 3.273438 -2.140625 3.203125 -2.078125 C 3.128906 -2.023438 3.03125 -2 2.90625 -2 L 1.234375 -2 L 1.234375 -1 C 1.234375 -0.894531 1.257812 -0.8125 1.3125 -0.75 C 1.363281 -0.695312 1.429688 -0.671875 1.515625 -0.671875 L 3.546875 -0.671875 C 3.671875 -0.671875 3.765625 -0.640625 3.828125 -0.578125 C 3.898438 -0.523438 3.9375 -0.441406 3.9375 -0.328125 C 3.9375 -0.222656 3.898438 -0.140625 3.828125 -0.078125 C 3.765625 -0.0234375 3.671875 0 3.546875 0 Z M 1.40625 0 "/></g></g><g style="fill:#2dc208;fill-opacity:1;"><g transform="translate(91.637769, 8.987148)"><path style="stroke:none" d="M 0.765625 0.0625 C 0.628906 0.0625 0.519531 0.0234375 0.4375 -0.046875 C 0.363281 -0.117188 0.328125 -0.210938 0.328125 -0.328125 L 0.328125 -2.625 C 0.328125 -3.25 0.507812 -3.738281 0.875 -4.09375 C 1.238281 -4.457031 1.742188 -4.640625 2.390625 -4.640625 C 2.804688 -4.640625 3.164062 -4.554688 3.46875 -4.390625 C 3.78125 -4.234375 4.019531 -4 4.1875 -3.6875 C 4.351562 -3.382812 4.4375 -3.03125 4.4375 -2.625 L 4.4375 -0.328125 C 4.4375 -0.210938 4.394531 -0.117188 4.3125 -0.046875 C 4.238281 0.0234375 4.132812 0.0625 4 0.0625 C 3.875 0.0625 3.769531 0.0234375 3.6875 -0.046875 C 3.601562 -0.117188 3.5625 -0.210938 3.5625 -0.328125 L 3.5625 -1.390625 L 1.203125 -1.390625 L 1.203125 -0.328125 C 1.203125 -0.210938 1.160156 -0.117188 1.078125 -0.046875 C 0.992188 0.0234375 0.890625 0.0625 0.765625 0.0625 Z M 3.5625 -2.078125 L 3.5625 -2.640625 C 3.5625 -3.078125 3.460938 -3.40625 3.265625 -3.625 C 3.066406 -3.84375 2.773438 -3.953125 2.390625 -3.953125 C 1.597656 -3.953125 1.203125 -3.515625 1.203125 -2.640625 L 1.203125 -2.078125 Z M 3.5625 -2.078125 "/></g></g><g style="fill:#2dc208;fill-opacity:1;"><g transform="translate(96.400735, 8.987148)"><path style="stroke:none" d="M 0.796875 0.0625 C 0.660156 0.0625 0.550781 0.03125 0.46875 -0.03125 C 0.394531 -0.101562 0.359375 -0.203125 0.359375 -0.328125 L 0.359375 -3.015625 C 0.359375 -3.523438 0.503906 -3.921875 0.796875 -4.203125 C 1.085938 -4.492188 1.484375 -4.640625 1.984375 -4.640625 C 2.222656 -4.640625 2.453125 -4.578125 2.671875 -4.453125 C 2.890625 -4.335938 3.078125 -4.164062 3.234375 -3.9375 C 3.390625 -4.164062 3.570312 -4.335938 3.78125 -4.453125 C 4 -4.578125 4.234375 -4.640625 4.484375 -4.640625 C 4.992188 -4.640625 5.390625 -4.492188 5.671875 -4.203125 C 5.960938 -3.921875 6.109375 -3.523438 6.109375 -3.015625 L 6.109375 -0.328125 C 6.109375 -0.210938 6.066406 -0.117188 5.984375 -0.046875 C 5.898438 0.0234375 5.796875 0.0625 5.671875 0.0625 C 5.535156 0.0625 5.425781 0.03125 5.34375 -0.03125 C 5.269531 -0.101562 5.234375 -0.203125 5.234375 -0.328125 L 5.234375 -3.015625 C 5.234375 -3.347656 5.171875 -3.585938 5.046875 -3.734375 C 4.929688 -3.878906 4.734375 -3.953125 4.453125 -3.953125 C 4.203125 -3.953125 4.003906 -3.867188 3.859375 -3.703125 C 3.722656 -3.546875 3.65625 -3.316406 3.65625 -3.015625 L 3.65625 -0.328125 C 3.65625 -0.203125 3.613281 -0.101562 3.53125 -0.03125 C 3.457031 0.03125 3.359375 0.0625 3.234375 0.0625 C 3.097656 0.0625 2.992188 0.03125 2.921875 -0.03125 C 2.847656 -0.101562 2.8125 -0.203125 2.8125 -0.328125 L 2.8125 -3.015625 C 2.8125 -3.304688 2.738281 -3.535156 2.59375 -3.703125 C 2.457031 -3.867188 2.265625 -3.953125 2.015625 -3.953125 C 1.734375 -3.953125 1.53125 -3.878906 1.40625 -3.734375 C 1.289062 -3.585938 1.234375 -3.347656 1.234375 -3.015625 L 1.234375 -0.328125 C 1.234375 -0.210938 1.191406 -0.117188 1.109375 -0.046875 C 1.035156 0.0234375 0.929688 0.0625 0.796875 0.0625 Z M 0.796875 0.0625 "/></g></g></g></svg>